Muli-Regular.ufo
<glyph name="exclam" format="1">
  <advance width="582"/>
  <unicode hex="0021"/>
  <outline>
    <contour>
      <point x="122" y="0" type="line"/>
      <point x="308" y="0" type="line"/>
      <point x="334" y="220" type="line"/>
      <point x="148" y="220" type="line"/>
    </contour>
    <contour>
      <point x="205" y="377" type="line"/>
      <point x="313" y="377" type="line"/>
      <point x="501" y="1456" type="line"/>
      <point x="283" y="1456" type="line"/>
    </contour>
  </outline>
</glyph>
<glyph name="quotedbl" format="1">
  <advance width="792"/>
  <unicode hex="0022"/>
  <outline>
    <contour>
      <point x="217" y="955" type="line"/>
      <point x="330" y="955" type="line"/>
      <point x="424" y="1456" type="line"/>
      <point x="235" y="1456" type="line"/>
    </contour>
    <contour>
      <point x="413" y="955" type="line"/>
      <point x="526" y="955" type="line"/>
      <point x="620" y="1456" type="line"/>
      <point x="431" y="1456" type="line"/>
    </contour>
  </outline>
</glyph>
<glyph name="numbersign" format="1">
  <advance width="1300"/>
  <unicode hex="0023"/>
  <outline>
    <contour>
      <point x="156" y="42" type="line"/>
      <point x="303" y="42" type="line"/>
      <point x="443" y="483" type="line"/>
      <point x="696" y="483" type="line"/>
      <point x="558" y="42" type="line"/>
      <point x="705" y="42" type="line"/>
      <point x="845" y="483" type="line"/>
      <point x="1110" y="483" type="line"/>
      <point x="1137" y="608" type="line"/>
      <point x="884" y="608" type="line"/>
      <point x="973" y="890" type="line"/>
      <point x="1223" y="890" type="line"/>
      <point x="1248" y="1015" type="line"/>
      <point x="1011" y="1015" type="line"/>
      <point x="1143" y="1431" type="line"/>
      <point x="995" y="1431" type="line"/>
      <point x="865" y="1015" type="line"/>
      <point x="612" y="1015" type="line"/>
      <point x="743" y="1431" type="line"/>
      <point x="593" y="1431" type="line"/>
      <point x="462" y="1015" type="line"/>
      <point x="187" y="1015" type="line"/>
      <point x="161" y="890" type="line"/>
      <point x="423" y="890" type="line"/>
      <point x="335" y="608" type="line"/>
      <point x="72" y="608" type="line"/>
      <point x="47" y="483" type="line"/>
      <point x="295" y="483" type="line"/>
    </contour>
    <contour>
      <point x="482" y="608" type="line"/>
      <point x="573" y="890" type="line"/>
      <point x="825" y="890" type="line"/>
      <point x="736" y="608" type="line"/>
    </contour>
  </outline>
</glyph>
<glyph name="percent" format="1">
  <advance width="1869"/>
  <unicode hex="0025"/>
  <outline>
    <contour>
      <point x="467" y="814" type="curve" smooth="yes"/>
      <point x="336" y="814"/>
      <point x="292" y="911"/>
      <point x="312" y="1082" type="curve" smooth="yes"/>
      <point x="333" y="1248"/>
      <point x="399" y="1353"/>
      <point x="534" y="1353" type="curve" smooth="yes"/>
      <point x="665" y="1353"/>
      <point x="705" y="1251"/>
      <point x="684" y="1083" type="curve" smooth="yes"/>
      <point x="664" y="914"/>
      <point x="596" y="814"/>
    </contour>
    <contour>
      <point x="451" y="692" type="curve" smooth="yes"/>
      <point x="670" y="692"/>
      <point x="815" y="845"/>
      <point x="844" y="1082" type="curve" smooth="yes"/>
      <point x="873" y="1320"/>
      <point x="770" y="1475"/>
      <point x="548" y="1475" type="curve" smooth="yes"/>
      <point x="326" y="1475"/>
      <point x="181" y="1317"/>
      <point x="152" y="1081" type="curve" smooth="yes"/>
      <point x="123" y="842"/>
      <point x="228" y="692"/>
    </contour>
    <contour>
      <point x="351" y="0" type="line"/>
      <point x="505" y="0" type="line"/>
      <point x="1530" y="1456" type="line"/>
      <point x="1374" y="1456" type="line"/>
    </contour>
    <contour>
      <point x="1339" y="104" type="curve" smooth="yes"/>
      <point x="1208" y="104"/>
      <point x="1164" y="200"/>
      <point x="1185" y="371" type="curve" smooth="yes"/>
      <point x="1205" y="537"/>
      <point x="1270" y="643"/>
      <point x="1406" y="643" type="curve" smooth="yes"/>
      <point x="1538" y="643"/>
      <point x="1578" y="541"/>
      <point x="1557" y="372" type="curve" smooth="yes"/>
      <point x="1537" y="204"/>
      <point x="1468" y="104"/>
    </contour>
    <contour>
      <point x="1323" y="-19" type="curve" smooth="yes"/>
      <point x="1542" y="-19"/>
      <point x="1688" y="143"/>
      <point x="1716" y="372" type="curve" smooth="yes"/>
      <point x="1744" y="600"/>
      <point x="1643" y="765"/>
      <point x="1421" y="765" type="curve" smooth="yes"/>
      <point x="1199" y="765"/>
      <point x="1052" y="598"/>
      <point x="1025" y="371" type="curve" smooth="yes"/>
      <point x="997" y="142"/>
      <point x="1102" y="-19"/>
    </contour>
  </outline>
</glyph>
<glyph name="ampersand" format="1">
  <advance width="1536"/>
  <unicode hex="0026"/>
  <outline>
    <contour>
      <point x="537" y="-24" type="curve" smooth="yes"/>
      <point x="733" y="-24"/>
      <point x="886" y="61"/>
      <point x="1008" y="174" type="curve"/>
      <point x="1055" y="118"/>
      <point x="1162" y="10"/>
      <point x="1281" y="-9" type="curve"/>
      <point x="1416" y="100" type="line"/>
      <point x="1281" y="134"/>
      <point x="1177" y="234"/>
      <point x="1127" y="293" type="curve"/>
      <point x="1254" y="450"/>
      <point x="1347" y="671"/>
      <point x="1378" y="875" type="curve"/>
      <point x="1212" y="903" type="line"/>
      <point x="1191" y="735"/>
      <point x="1120" y="554"/>
      <point x="1024" y="423" type="curve"/>
      <point x="713" y="815" type="line"/>
      <point x="867" y="902"/>
      <point x="1014" y="1029"/>
      <point x="1034" y="1185" type="curve" smooth="yes"/>
      <point x="1058" y="1384"/>
      <point x="895" y="1476"/>
      <point x="722" y="1476" type="curve" smooth="yes"/>
      <point x="538" y="1476"/>
      <point x="376" y="1375"/>
      <point x="351" y="1179" type="curve" smooth="yes"/>
      <point x="335" y="1045"/>
      <point x="392" y="950"/>
      <point x="473" y="846" type="curve"/>
      <point x="290" y="744"/>
      <point x="119" y="632"/>
      <point x="91" y="411" type="curve" smooth="yes"/>
      <point x="58" y="137"/>
      <point x="254" y="-24"/>
    </contour>
    <contour>
      <point x="555" y="138" type="curve" smooth="yes"/>
      <point x="372" y="138"/>
      <point x="261" y="253"/>
      <point x="281" y="413" type="curve" smooth="yes"/>
      <point x="301" y="575"/>
      <point x="422" y="656"/>
      <point x="561" y="729" type="curve"/>
      <point x="915" y="293" type="line"/>
      <point x="815" y="201"/>
      <point x="710" y="138"/>
    </contour>
    <contour>
      <point x="619" y="920" type="curve"/>
      <point x="550" y="997"/>
      <point x="517" y="1081"/>
      <point x="528" y="1175" type="curve" smooth="yes"/>
      <point x="540" y="1275"/>
      <point x="619" y="1326"/>
      <point x="711" y="1326" type="curve" smooth="yes"/>
      <point x="787" y="1326"/>
      <point x="868" y="1284"/>
      <point x="854" y="1175" type="curve" smooth="yes"/>
      <point x="842" y="1070"/>
      <point x="729" y="983"/>
    </contour>
  </outline>
</glyph>
<glyph name="quotesingle" format="1">
  <advance width="509"/>
  <unicode hex="0027"/>
  <outline>
    <contour>
      <point x="167" y="936" type="line"/>
      <point x="299" y="936" type="line"/>
      <point x="391" y="1456" type="line"/>
      <point x="194" y="1456" type="line"/>
    </contour>
  </outline>
</glyph>
<glyph name="parenleft" format="1">
  <advance width="635"/>
  <unicode hex="0028"/>
  <outline>
    <contour>
      <point x="308" y="-173" type="curve"/>
      <point x="483" y="-173" type="line"/>
      <point x="355" y="79"/>
      <point x="287" y="390"/>
      <point x="321" y="665" type="curve" smooth="yes"/>
      <point x="358" y="960"/>
      <point x="489" y="1249"/>
      <point x="690" y="1516" type="curve"/>
      <point x="512" y="1516" type="line"/>
      <point x="312" y="1252"/>
      <point x="175" y="978"/>
      <point x="137" y="663" type="curve" smooth="yes"/>
      <point x="100" y="362"/>
      <point x="181" y="66"/>
    </contour>
  </outline>
</glyph>
<glyph name="parenright" format="1">
  <advance width="635"/>
  <unicode hex="0029"/>
  <outline>
    <contour>
      <point x="-55" y="-193" type="curve"/>
      <point x="124" y="-193" type="line"/>
      <point x="324" y="70"/>
      <point x="460" y="345"/>
      <point x="499" y="660" type="curve" smooth="yes"/>
      <point x="535" y="961"/>
      <point x="455" y="1258"/>
      <point x="328" y="1496" type="curve"/>
      <point x="153" y="1496" type="line"/>
      <point x="281" y="1243"/>
      <point x="348" y="933"/>
      <point x="315" y="659" type="curve" smooth="yes"/>
      <point x="278" y="363"/>
      <point x="147" y="74"/>
    </contour>
  </outline>
</glyph>
<glyph name="asterisk" format="1">
  <advance width="1112"/>
  <unicode hex="002A"/>
  <outline>
    <contour>
      <point x="672" y="711" type="line"/>
      <point x="823" y="798" type="line"/>
      <point x="651" y="1044" type="line"/>
      <point x="925" y="1133" type="line"/>
      <point x="874" y="1275" type="line"/>
      <point x="624" y="1155" type="line"/>
      <point x="677" y="1457" type="line"/>
      <point x="507" y="1457" type="line"/>
      <point x="500" y="1155" type="line"/>
      <point x="261" y="1275" type="line"/>
      <point x="189" y="1133" type="line"/>
      <point x="449" y="1044" type="line"/>
      <point x="225" y="806" type="line"/>
      <point x="352" y="716" type="line"/>
      <point x="542" y="974" type="line"/>
    </contour>
  </outline>
</glyph>
<glyph name="plus" format="1">
  <advance width="1202"/>
  <unicode hex="002B"/>
  <outline>
    <contour>
      <point x="455" y="103" type="line"/>
      <point x="627" y="103" type="line"/>
      <point x="678" y="518" type="line"/>
      <point x="1063" y="518" type="line"/>
      <point x="1082" y="674" type="line"/>
      <point x="696" y="674" type="line"/>
      <point x="745" y="1075" type="line"/>
      <point x="575" y="1075" type="line"/>
      <point x="525" y="674" type="line"/>
      <point x="141" y="674" type="line"/>
      <point x="122" y="518" type="line"/>
      <point x="506" y="518" type="line"/>
    </contour>
  </outline>
</glyph>
<glyph name="comma" format="1">
  <advance width="487"/>
  <unicode hex="002C"/>
  <outline>
    <contour>
      <point x="42" y="-265" type="line"/>
      <point x="192" y="-265" type="line"/>
      <point x="419" y="222" type="line"/>
      <point x="210" y="222" type="line"/>
    </contour>
  </outline>
</glyph>
<glyph name="hyphen" format="1">
  <advance width="679"/>
  <unicode hex="002D"/>
  <outline>
    <contour>
      <point x="342" y="555" type="move" name="_mid"/>
    </contour>
    <contour>
      <point x="53" y="487" type="line"/>
      <point x="608" y="487" type="line"/>
      <point x="626" y="629" type="line"/>
      <point x="70" y="629" type="line"/>
    </contour>
  </outline>
</glyph>
<glyph name="period" format="1">
  <advance width="543"/>
  <unicode hex="002E"/>
  <outline>
    <contour>
      <point x="137" y="0" type="line"/>
      <point x="372" y="0" type="line"/>
      <point x="400" y="225" type="line"/>
      <point x="165" y="225" type="line"/>
    </contour>
  </outline>
</glyph>
<glyph name="slash" format="1">
  <advance width="910"/>
  <unicode hex="002F"/>
  <outline>
    <contour>
      <point x="36" y="0" type="line"/>
      <point x="203" y="0" type="line"/>
      <point x="915" y="1456" type="line"/>
      <point x="744" y="1456" type="line"/>
    </contour>
  </outline>
</glyph>
<glyph name="zero" format="1">
  <advance width="1231"/>
  <unicode hex="0030"/>
  <outline>
    <contour>
      <point x="550" y="139" type="curve" smooth="yes"/>
      <point x="332" y="139"/>
      <point x="278" y="381"/>
      <point x="321" y="732" type="curve" smooth="yes"/>
      <point x="362" y="1069"/>
      <point x="476" y="1321"/>
      <point x="694" y="1321" type="curve" smooth="yes"/>
      <point x="905" y="1321"/>
      <point x="950" y="1069"/>
      <point x="908" y="732" type="curve" smooth="yes"/>
      <point x="866" y="381"/>
      <point x="760" y="139"/>
    </contour>
    <contour>
      <point x="528" y="-22" type="curve" smooth="yes"/>
      <point x="855" y="-22"/>
      <point x="1052" y="277"/>
      <point x="1107" y="732" type="curve" smooth="yes"/>
      <point x="1165" y="1198"/>
      <point x="1039" y="1482"/>
      <point x="713" y="1482" type="curve" smooth="yes"/>
      <point x="386" y="1482"/>
      <point x="182" y="1205"/>
      <point x="125" y="732" type="curve" smooth="yes"/>
      <point x="69" y="277"/>
      <point x="202" y="-22"/>
    </contour>
  </outline>
</glyph>
<glyph name="one" format="1">
  <advance width="1231"/>
  <unicode hex="0031"/>
  <outline>
    <contour>
      <point x="193" y="0" type="line"/>
      <point x="930" y="0" type="line"/>
      <point x="948" y="150" type="line"/>
      <point x="684" y="150" type="line"/>
      <point x="844" y="1456" type="line"/>
      <point x="694" y="1456" type="line"/>
      <point x="599" y="1403"/>
      <point x="444" y="1331"/>
      <point x="336" y="1295" type="curve"/>
      <point x="315" y="1122" type="line"/>
      <point x="424" y="1161"/>
      <point x="538" y="1204"/>
      <point x="628" y="1250" type="curve"/>
      <point x="492" y="150" type="line"/>
      <point x="211" y="150" type="line"/>
    </contour>
  </outline>
</glyph>
<glyph name="two" format="1">
  <advance width="1238"/>
  <unicode hex="0032"/>
  <outline>
    <contour>
      <point x="118" y="0" type="line"/>
      <point x="952" y="0" type="line"/>
      <point x="972" y="158" type="line"/>
      <point x="366" y="158" type="line"/>
      <point x="732" y="501" type="line" smooth="yes"/>
      <point x="938" y="693"/>
      <point x="1067" y="852"/>
      <point x="1088" y="1059" type="curve" smooth="yes"/>
      <point x="1112" y="1305"/>
      <point x="961" y="1482"/>
      <point x="690" y="1482" type="curve" smooth="yes"/>
      <point x="448" y="1482"/>
      <point x="264" y="1361"/>
      <point x="238" y="1347" type="curve"/>
      <point x="281" y="1198" type="line"/>
      <point x="306" y="1211"/>
      <point x="477" y="1320"/>
      <point x="659" y="1320" type="curve" smooth="yes"/>
      <point x="829" y="1320"/>
      <point x="915" y="1212"/>
      <point x="901" y="1054" type="curve" smooth="yes"/>
      <point x="890" y="911"/>
      <point x="820" y="791"/>
      <point x="637" y="620" type="curve" smooth="yes"/>
      <point x="136" y="150" type="line"/>
    </contour>
  </outline>
</glyph>
<glyph name="three" format="1">
  <advance width="1231"/>
  <unicode hex="0033"/>
  <outline>
    <contour>
      <point x="490" y="-22" type="curve" smooth="yes"/>
      <point x="766" y="-22"/>
      <point x="1001" y="138"/>
      <point x="1034" y="403" type="curve" smooth="yes"/>
      <point x="1057" y="588"/>
      <point x="961" y="731"/>
      <point x="773" y="767" type="curve"/>
      <point x="957" y="806"/>
      <point x="1065" y="949"/>
      <point x="1085" y="1109" type="curve" smooth="yes"/>
      <point x="1115" y="1353"/>
      <point x="914" y="1482"/>
      <point x="675" y="1482" type="curve" smooth="yes"/>
      <point x="472" y="1482"/>
      <point x="330" y="1426"/>
      <point x="206" y="1317" type="curve"/>
      <point x="278" y="1189" type="line"/>
      <point x="352" y="1252"/>
      <point x="473" y="1321"/>
      <point x="634" y="1321" type="curve" smooth="yes"/>
      <point x="786" y="1321"/>
      <point x="913" y="1248"/>
      <point x="896" y="1107" type="curve" smooth="yes"/>
      <point x="873" y="915"/>
      <point x="744" y="845"/>
      <point x="506" y="845" type="curve" smooth="yes"/>
      <point x="431" y="845" type="line"/>
      <point x="414" y="682" type="line"/>
      <point x="490" y="683" type="line" smooth="yes"/>
      <point x="731" y="685"/>
      <point x="869" y="597"/>
      <point x="846" y="410" type="curve" smooth="yes"/>
      <point x="826" y="242"/>
      <point x="687" y="139"/>
      <point x="493" y="139" type="curve" smooth="yes"/>
      <point x="345" y="139"/>
      <point x="210" y="206"/>
      <point x="170" y="227" type="curve"/>
      <point x="99" y="81" type="line"/>
      <point x="120" y="67"/>
      <point x="265" y="-22"/>
    </contour>
  </outline>
</glyph>
<glyph name="four" format="1">
  <advance width="1231"/>
  <unicode hex="0034"/>
  <outline>
    <contour>
      <point x="663" y="0" type="line"/>
      <point x="846" y="0" type="line"/>
      <point x="894" y="385" type="line"/>
      <point x="1112" y="385" type="line"/>
      <point x="1129" y="527" type="line"/>
      <point x="912" y="527" type="line"/>
      <point x="1025" y="1456" type="line"/>
      <point x="791" y="1456" type="line"/>
      <point x="79" y="513" type="line"/>
      <point x="63" y="385" type="line"/>
      <point x="710" y="385" type="line"/>
    </contour>
    <contour>
      <point x="281" y="527" type="line"/>
      <point x="655" y="1040" type="line"/>
      <point x="818" y="1272" type="line"/>
      <point x="727" y="527" type="line"/>
    </contour>
  </outline>
</glyph>
<glyph name="five" format="1">
  <advance width="1231"/>
  <unicode hex="0035"/>
  <outline>
    <contour>
      <point x="512" y="-23" type="curve" smooth="yes"/>
      <point x="797" y="-23"/>
      <point x="1039" y="161"/>
      <point x="1077" y="465" type="curve" smooth="yes"/>
      <point x="1110" y="738"/>
      <point x="956" y="940"/>
      <point x="695" y="940" type="curve" smooth="yes"/>
      <point x="593" y="940"/>
      <point x="484" y="908"/>
      <point x="415" y="839" type="curve"/>
      <point x="486" y="1293" type="line"/>
      <point x="1093" y="1293" type="line"/>
      <point x="1113" y="1456" type="line"/>
      <point x="332" y="1456" type="line"/>
      <point x="234" y="690" type="line"/>
      <point x="411" y="673" type="line"/>
      <point x="462" y="738"/>
      <point x="562" y="773"/>
      <point x="652" y="773" type="curve" smooth="yes"/>
      <point x="822" y="773"/>
      <point x="901" y="636"/>
      <point x="880" y="469" type="curve" smooth="yes"/>
      <point x="855" y="266"/>
      <point x="716" y="139"/>
      <point x="531" y="139" type="curve" smooth="yes"/>
      <point x="413" y="139"/>
      <point x="290" y="183"/>
      <point x="201" y="289" type="curve"/>
      <point x="91" y="147" type="line"/>
      <point x="199" y="29"/>
      <point x="354" y="-23"/>
    </contour>
  </outline>
</glyph>
<glyph name="six" format="1">
  <advance width="1231"/>
  <unicode hex="0036"/>
  <outline>
    <contour>
      <point x="564" y="-22" type="curve" smooth="yes"/>
      <point x="860" y="-22"/>
      <point x="1069" y="189"/>
      <point x="1102" y="466" type="curve" smooth="yes"/>
      <point x="1138" y="757"/>
      <point x="973" y="941"/>
      <point x="711" y="941" type="curve" smooth="yes"/>
      <point x="546" y="941"/>
      <point x="421" y="862"/>
      <point x="343" y="761" type="curve"/>
      <point x="347" y="782"/>
      <point x="350" y="804"/>
      <point x="355" y="827" type="curve" smooth="yes"/>
      <point x="403" y="1071"/>
      <point x="537" y="1321"/>
      <point x="781" y="1321" type="curve" smooth="yes"/>
      <point x="889" y="1321"/>
      <point x="980" y="1284"/>
      <point x="1045" y="1227" type="curve"/>
      <point x="1128" y="1367" type="line"/>
      <point x="1058" y="1435"/>
      <point x="944" y="1482"/>
      <point x="799" y="1482" type="curve" smooth="yes"/>
      <point x="418" y="1482"/>
      <point x="189" y="1126"/>
      <point x="136" y="694" type="curve" smooth="yes"/>
      <point x="83" y="268"/>
      <point x="211" y="-22"/>
    </contour>
    <contour>
      <point x="584" y="139" type="curve" smooth="yes"/>
      <point x="393" y="139"/>
      <point x="301" y="289"/>
      <point x="327" y="503" type="curve" smooth="yes"/>
      <point x="346" y="654"/>
      <point x="481" y="784"/>
      <point x="668" y="784" type="curve" smooth="yes"/>
      <point x="855" y="784"/>
      <point x="927" y="644"/>
      <point x="905" y="463" type="curve" smooth="yes"/>
      <point x="882" y="279"/>
      <point x="761" y="139"/>
    </contour>
  </outline>
</glyph>
<glyph name="seven" format="1">
  <advance width="1231"/>
  <unicode hex="0037"/>
  <outline>
    <contour>
      <point x="265" y="0" type="line"/>
      <point x="471" y="0" type="line"/>
      <point x="1164" y="1312" type="line"/>
      <point x="1181" y="1456" type="line"/>
      <point x="260" y="1456" type="line"/>
      <point x="241" y="1295" type="line"/>
      <point x="945" y="1295" type="line"/>
    </contour>
  </outline>
</glyph>
<glyph name="eight" format="1">
  <advance width="1232"/>
  <unicode hex="0038"/>
  <outline>
    <contour>
      <point x="528" y="-22" type="curve" smooth="yes"/>
      <point x="781" y="-22"/>
      <point x="1025" y="120"/>
      <point x="1057" y="377" type="curve" smooth="yes"/>
      <point x="1079" y="556"/>
      <point x="982" y="698"/>
      <point x="808" y="763" type="curve"/>
      <point x="975" y="821"/>
      <point x="1093" y="939"/>
      <point x="1114" y="1107" type="curve" smooth="yes"/>
      <point x="1143" y="1343"/>
      <point x="967" y="1482"/>
      <point x="711" y="1482" type="curve" smooth="yes"/>
      <point x="460" y="1482"/>
      <point x="248" y="1344"/>
      <point x="219" y="1110" type="curve" smooth="yes"/>
      <point x="198" y="942"/>
      <point x="290" y="824"/>
      <point x="441" y="763" type="curve"/>
      <point x="248" y="697"/>
      <point x="118" y="560"/>
      <point x="97" y="380" type="curve" smooth="yes"/>
      <point x="65" y="122"/>
      <point x="271" y="-22"/>
    </contour>
    <contour>
      <point x="545" y="131" type="curve" smooth="yes"/>
      <point x="376" y="131"/>
      <point x="266" y="219"/>
      <point x="286" y="382" type="curve" smooth="yes"/>
      <point x="305" y="539"/>
      <point x="443" y="646"/>
      <point x="615" y="682" type="curve"/>
      <point x="778" y="646"/>
      <point x="889" y="535"/>
      <point x="870" y="384" type="curve" smooth="yes"/>
      <point x="849" y="217"/>
      <point x="716" y="131"/>
    </contour>
    <contour>
      <point x="633" y="843" type="curve"/>
      <point x="474" y="878"/>
      <point x="387" y="975"/>
      <point x="404" y="1113" type="curve" smooth="yes"/>
      <point x="422" y="1258"/>
      <point x="552" y="1333"/>
      <point x="694" y="1333" type="curve" smooth="yes"/>
      <point x="834" y="1333"/>
      <point x="948" y="1256"/>
      <point x="930" y="1115" type="curve" smooth="yes"/>
      <point x="913" y="975"/>
      <point x="803" y="879"/>
    </contour>
  </outline>
</glyph>
<glyph name="nine" format="1">
  <advance width="1232"/>
  <unicode hex="0039"/>
  <outline>
    <contour>
      <point x="467" y="-22" type="curve" smooth="yes"/>
      <point x="805" y="-22"/>
      <point x="1044" y="270"/>
      <point x="1105" y="772" type="curve" smooth="yes"/>
      <point x="1161" y="1227"/>
      <point x="1028" y="1482"/>
      <point x="700" y="1482" type="curve" smooth="yes"/>
      <point x="404" y="1482"/>
      <point x="198" y="1273"/>
      <point x="164" y="1000" type="curve" smooth="yes"/>
      <point x="130" y="723"/>
      <point x="282" y="534"/>
      <point x="554" y="534" type="curve" smooth="yes"/>
      <point x="705" y="534"/>
      <point x="833" y="595"/>
      <point x="906" y="701" type="curve"/>
      <point x="906" y="698"/>
      <point x="900" y="656"/>
      <point x="899" y="651" type="curve" smooth="yes"/>
      <point x="861" y="346"/>
      <point x="708" y="139"/>
      <point x="474" y="139" type="curve" smooth="yes"/>
      <point x="380" y="139"/>
      <point x="292" y="169"/>
      <point x="210" y="223" type="curve"/>
      <point x="126" y="71" type="line"/>
      <point x="237" y="9"/>
      <point x="349" y="-22"/>
    </contour>
    <contour>
      <point x="593" y="692" type="curve" smooth="yes"/>
      <point x="400" y="692"/>
      <point x="337" y="829"/>
      <point x="359" y="1004" type="curve" smooth="yes"/>
      <point x="381" y="1186"/>
      <point x="502" y="1321"/>
      <point x="682" y="1321" type="curve" smooth="yes"/>
      <point x="882" y="1321"/>
      <point x="952" y="1156"/>
      <point x="931" y="984" type="curve" smooth="yes"/>
      <point x="910" y="813"/>
      <point x="774" y="692"/>
    </contour>
  </outline>
</glyph>
<glyph name="equal" format="1">
  <advance width="1290"/>
  <unicode hex="003D"/>
  <outline>
    <contour>
      <point x="138" y="292" type="line"/>
      <point x="1086" y="292" type="line"/>
      <point x="1105" y="445" type="line"/>
      <point x="157" y="445" type="line"/>
    </contour>
    <contour>
      <point x="185" y="683" type="line"/>
      <point x="1133" y="683" type="line"/>
      <point x="1152" y="837" type="line"/>
      <point x="205" y="837" type="line"/>
    </contour>
  </outline>
</glyph>
<glyph name="greater" format="1">
  <advance width="1256"/>
  <unicode hex="003E"/>
  <outline>
    <contour>
      <point x="153" y="68" type="line"/>
      <point x="1144" y="504" type="line"/>
      <point x="1156" y="602" type="line"/>
      <point x="281" y="1075" type="line"/>
      <point x="261" y="903" type="line"/>
      <point x="913" y="560" type="line"/>
      <point x="174" y="242" type="line"/>
    </contour>
  </outline>
</glyph>
<glyph name="question" format="1">
  <advance width="1058"/>
  <unicode hex="003F"/>
  <outline>
    <contour>
      <point x="317" y="379" type="line"/>
      <point x="466" y="379" type="line"/>
      <point x="478" y="478" type="line" smooth="yes"/>
      <point x="508" y="718"/>
      <point x="940" y="831"/>
      <point x="977" y="1130" type="curve" smooth="yes"/>
      <point x="1005" y="1365"/>
      <point x="840" y="1479"/>
      <point x="599" y="1479" type="curve" smooth="yes"/>
      <point x="488" y="1479"/>
      <point x="360" y="1448"/>
      <point x="280" y="1411" type="curve"/>
      <point x="260" y="1245" type="line"/>
      <point x="311" y="1271"/>
      <point x="437" y="1319"/>
      <point x="558" y="1319" type="curve" smooth="yes"/>
      <point x="697" y="1319"/>
      <point x="802" y="1264"/>
      <point x="785" y="1123" type="curve" smooth="yes"/>
      <point x="757" y="894"/>
      <point x="365" y="770"/>
      <point x="334" y="521" type="curve" smooth="yes"/>
    </contour>
    <contour>
      <point x="251" y="-4" type="line"/>
      <point x="438" y="-4" type="line"/>
      <point x="466" y="217" type="line"/>
      <point x="279" y="217" type="line"/>
    </contour>
  </outline>
</glyph>
<glyph name="at" format="1">
  <advance width="1768"/>
  <unicode hex="0040"/>
  <outline>
    <contour>
      <point x="829" y="-88" type="curve" smooth="yes"/>
      <point x="1054" y="-88"/>
      <point x="1284" y="-20"/>
      <point x="1430" y="112" type="curve"/>
      <point x="1370" y="194" type="line"/>
      <point x="1228" y="89"/>
      <point x="1035" y="34"/>
      <point x="854" y="34" type="curve" smooth="yes"/>
      <point x="489" y="34"/>
      <point x="208" y="254"/>
      <point x="260" y="676" type="curve" smooth="yes"/>
      <point x="313" y="1109"/>
      <point x="644" y="1355"/>
      <point x="1018" y="1355" type="curve" smooth="yes"/>
      <point x="1344" y="1355"/>
      <point x="1586" y="1150"/>
      <point x="1543" y="802" type="curve" smooth="yes"/>
      <point x="1512" y="550"/>
      <point x="1354" y="359"/>
      <point x="1229" y="359" type="curve" smooth="yes"/>
      <point x="1179" y="359"/>
      <point x="1161" y="401"/>
      <point x="1166" y="443" type="curve" smooth="yes"/>
      <point x="1172" y="485"/>
      <point x="1184" y="528"/>
      <point x="1210" y="605" type="curve" smooth="yes"/>
      <point x="1381" y="1114" type="line"/>
      <point x="1226" y="1114" type="line"/>
      <point x="1183" y="992" type="line"/>
      <point x="1170" y="1092"/>
      <point x="1090" y="1140"/>
      <point x="984" y="1142" type="curve" smooth="yes"/>
      <point x="766" y="1145"/>
      <point x="514" y="922"/>
      <point x="472" y="622" type="curve" smooth="yes"/>
      <point x="439" y="390"/>
      <point x="584" y="266"/>
      <point x="743" y="266" type="curve" smooth="yes"/>
      <point x="884" y="266"/>
      <point x="1003" y="353"/>
      <point x="1059" y="462" type="curve"/>
      <point x="1037" y="332"/>
      <point x="1099" y="258"/>
      <point x="1226" y="258" type="curve" smooth="yes"/>
      <point x="1427" y="258"/>
      <point x="1634" y="504"/>
      <point x="1671" y="798" type="curve" smooth="yes"/>
      <point x="1720" y="1199"/>
      <point x="1446" y="1478"/>
      <point x="1030" y="1478" type="curve" smooth="yes"/>
      <point x="574" y="1478"/>
      <point x="166" y="1170"/>
      <point x="105" y="677" type="curve" smooth="yes"/>
      <point x="48" y="204"/>
      <point x="361" y="-88"/>
    </contour>
    <contour>
      <point x="781" y="406" type="curve" smooth="yes"/>
      <point x="683" y="406"/>
      <point x="627" y="482"/>
      <point x="641" y="596" type="curve" smooth="yes"/>
      <point x="665" y="795"/>
      <point x="810" y="1013"/>
      <point x="983" y="1010" type="curve" smooth="yes"/>
      <point x="1080" y="1008"/>
      <point x="1128" y="932"/>
      <point x="1112" y="816" type="curve" smooth="yes"/>
      <point x="1081" y="601"/>
      <point x="937" y="406"/>
    </contour>
  </outline>
</glyph>
<glyph name="A" format="1">
  <advance width="1399"/>
  <unicode hex="0041"/>
  <outline>
    <contour>
      <point x="788" y="1456" type="move" name="top"/>
    </contour>
    <contour>
      <point x="1189" y="0" type="move" name="ogonek"/>
    </contour>
    <contour>
      <point x="-58" y="0" type="line"/>
      <point x="150" y="0" type="line"/>
      <point x="345" y="389" type="line"/>
      <point x="968" y="389" type="line"/>
      <point x="1070" y="0" type="line"/>
      <point x="1279" y="0" type="line"/>
      <point x="889" y="1456" type="line"/>
      <point x="685" y="1456" type="line"/>
    </contour>
    <contour>
      <point x="416" y="545" type="line"/>
      <point x="589" y="901" type="line"/>
      <point x="761" y="1256" type="line"/>
      <point x="846" y="901" type="line"/>
      <point x="930" y="545" type="line"/>
    </contour>
  </outline>
</glyph>
<glyph name="B" format="1">
  <advance width="1356"/>
  <unicode hex="0042"/>
  <outline>
    <contour>
      <point x="736" y="1456" type="move" name="top"/>
    </contour>
    <contour>
      <point x="113" y="0" type="line"/>
      <point x="630" y="0" type="line" smooth="yes"/>
      <point x="978" y="0"/>
      <point x="1172" y="186"/>
      <point x="1200" y="414" type="curve" smooth="yes"/>
      <point x="1224" y="608"/>
      <point x="1128" y="743"/>
      <point x="935" y="777" type="curve"/>
      <point x="1104" y="822"/>
      <point x="1195" y="944"/>
      <point x="1215" y="1101" type="curve" smooth="yes"/>
      <point x="1253" y="1410"/>
      <point x="955" y="1456"/>
      <point x="676" y="1456" type="curve" smooth="yes"/>
      <point x="291" y="1456" type="line"/>
    </contour>
    <contour>
      <point x="324" y="163" type="line"/>
      <point x="388" y="682" type="line"/>
      <point x="656" y="682" type="line" smooth="yes"/>
      <point x="924" y="682"/>
      <point x="1023" y="615"/>
      <point x="998" y="419" type="curve" smooth="yes"/>
      <point x="978" y="254"/>
      <point x="845" y="163"/>
      <point x="619" y="163" type="curve" smooth="yes"/>
    </contour>
    <contour>
      <point x="407" y="840" type="line"/>
      <point x="463" y="1295" type="line"/>
      <point x="683" y="1295" type="line" smooth="yes"/>
      <point x="904" y="1295"/>
      <point x="1033" y="1252"/>
      <point x="1011" y="1078" type="curve" smooth="yes"/>
      <point x="989" y="897"/>
      <point x="842" y="840"/>
      <point x="660" y="840" type="curve" smooth="yes"/>
    </contour>
  </outline>
</glyph>
<glyph name="C" format="1">
  <advance width="1399"/>
  <unicode hex="0043"/>
  <outline>
    <contour>
      <point x="904" y="1456" type="move" name="top"/>
    </contour>
    <contour>
      <point x="718" y="0" type="move" name="bot"/>
    </contour>
    <contour>
      <point x="732" y="-22" type="curve" smooth="yes"/>
      <point x="904" y="-22"/>
      <point x="1077" y="25"/>
      <point x="1236" y="131" type="curve"/>
      <point x="1190" y="283" type="line"/>
      <point x="1044" y="183"/>
      <point x="900" y="139"/>
      <point x="761" y="139" type="curve" smooth="yes"/>
      <point x="455" y="139"/>
      <point x="263" y="359"/>
      <point x="307" y="718" type="curve" smooth="yes"/>
      <point x="348" y="1059"/>
      <point x="584" y="1321"/>
      <point x="904" y="1321" type="curve" smooth="yes"/>
      <point x="1032" y="1321"/>
      <point x="1153" y="1287"/>
      <point x="1257" y="1202" type="curve"/>
      <point x="1349" y="1332" type="line"/>
      <point x="1230" y="1440"/>
      <point x="1081" y="1482"/>
      <point x="909" y="1482" type="curve" smooth="yes"/>
      <point x="506" y="1482"/>
      <point x="162" y="1179"/>
      <point x="105" y="716" type="curve" smooth="yes"/>
      <point x="46" y="234"/>
      <point x="349" y="-22"/>
    </contour>
  </outline>
</glyph>
<glyph name="D" format="1">
  <advance width="1539"/>
  <unicode hex="0044"/>
  <outline>
    <contour>
      <point x="786" y="1456" type="move" name="top"/>
    </contour>
    <contour>
      <point x="333" y="772" type="move" name="mid"/>
    </contour>
    <contour>
      <point x="323" y="161" type="line"/>
      <point x="462" y="1295" type="line"/>
      <point x="647" y="1295" type="line" smooth="yes"/>
      <point x="1084" y="1295"/>
      <point x="1274" y="1115"/>
      <point x="1225" y="726" type="curve" smooth="yes"/>
      <point x="1182" y="372"/>
      <point x="961" y="161"/>
      <point x="566" y="161" type="curve" smooth="yes"/>
    </contour>
    <contour>
      <point x="113" y="0" type="line"/>
      <point x="536" y="0" type="line" smooth="yes"/>
      <point x="1057" y="0"/>
      <point x="1371" y="264"/>
      <point x="1427" y="726" type="curve" smooth="yes"/>
      <point x="1490" y="1233"/>
      <point x="1197" y="1456"/>
      <point x="649" y="1456" type="curve" smooth="yes"/>
      <point x="291" y="1456" type="line"/>
    </contour>
  </outline>
</glyph>
<glyph name="F" format="1">
  <advance width="1117"/>
  <unicode hex="0046"/>
  <outline>
    <contour>
      <point x="728" y="1456" type="move" name="top"/>
    </contour>
    <contour>
      <point x="113" y="0" type="line"/>
      <point x="304" y="0" type="line"/>
      <point x="386" y="675" type="line"/>
      <point x="990" y="675" type="line"/>
      <point x="1010" y="837" type="line"/>
      <point x="406" y="837" type="line"/>
      <point x="462" y="1295" type="line"/>
      <point x="1111" y="1295" type="line"/>
      <point x="1131" y="1456" type="line"/>
      <point x="291" y="1456" type="line"/>
    </contour>
  </outline>
</glyph>
<glyph name="G" format="1">
  <advance width="1527"/>
  <unicode hex="0047"/>
  <outline>
    <contour>
      <point x="922" y="1456" type="move" name="top"/>
    </contour>
    <contour>
      <point x="726" y="0" type="move" name="bot"/>
    </contour>
    <contour>
      <point x="752" y="-22" type="curve" smooth="yes"/>
      <point x="922" y="-22"/>
      <point x="1105" y="8"/>
      <point x="1281" y="84" type="curve"/>
      <point x="1365" y="766" type="line"/>
      <point x="807" y="766" type="line"/>
      <point x="787" y="603" type="line"/>
      <point x="1154" y="603" type="line"/>
      <point x="1104" y="191" type="line"/>
      <point x="1008" y="156"/>
      <point x="885" y="139"/>
      <point x="779" y="139" type="curve" smooth="yes"/>
      <point x="415" y="139"/>
      <point x="263" y="373"/>
      <point x="304" y="712" type="curve" smooth="yes"/>
      <point x="347" y="1062"/>
      <point x="599" y="1321"/>
      <point x="937" y="1321" type="curve" smooth="yes"/>
      <point x="1090" y="1321"/>
      <point x="1214" y="1283"/>
      <point x="1321" y="1203" type="curve"/>
      <point x="1415" y="1336" type="line"/>
      <point x="1296" y="1433"/>
      <point x="1146" y="1482"/>
      <point x="953" y="1482" type="curve" smooth="yes"/>
      <point x="506" y="1482"/>
      <point x="161" y="1156"/>
      <point x="105" y="704" type="curve" smooth="yes"/>
      <point x="51" y="266"/>
      <point x="275" y="-22"/>
    </contour>
  </outline>
</glyph>
<glyph name="I" format="1">
  <advance width="602"/>
  <unicode hex="0049"/>
  <outline>
    <contour>
      <point x="410" y="1456" type="move" name="top"/>
    </contour>
    <contour>
      <point x="129" y="0" type="line"/>
      <point x="320" y="0" type="line"/>
      <point x="498" y="1456" type="line"/>
      <point x="307" y="1456" type="line"/>
    </contour>
  </outline>
</glyph>
<glyph name="J" format="1">
  <advance width="786"/>
  <unicode hex="004A"/>
  <outline>
    <contour>
      <point x="598" y="1456" type="move" name="top"/>
    </contour>
    <contour>
      <point x="119" y="-326" type="curve" smooth="yes"/>
      <point x="354" y="-326"/>
      <point x="495" y="-193"/>
      <point x="533" y="121" type="curve" smooth="yes"/>
      <point x="698" y="1456" type="line"/>
      <point x="506" y="1456" type="line"/>
      <point x="342" y="120" type="line" smooth="yes"/>
      <point x="318" y="-78"/>
      <point x="267" y="-165"/>
      <point x="114" y="-165" type="curve" smooth="yes"/>
      <point x="48" y="-165"/>
      <point x="-16" y="-149"/>
      <point x="-66" y="-134" type="curve"/>
      <point x="-111" y="-284" type="line"/>
      <point x="-50" y="-305"/>
      <point x="33" y="-326"/>
    </contour>
  </outline>
</glyph>
<glyph name="M" format="1">
  <advance width="1923"/>
  <unicode hex="004D"/>
  <outline>
    <contour>
      <point x="1057" y="1456" type="move" name="top"/>
    </contour>
    <contour>
      <point x="113" y="0" type="line"/>
      <point x="297" y="0" type="line"/>
      <point x="439" y="1153" type="line"/>
      <point x="491" y="973" type="line"/>
      <point x="804" y="0" type="line"/>
      <point x="941" y="0" type="line"/>
      <point x="1500" y="983" type="line"/>
      <point x="1591" y="1145" type="line"/>
      <point x="1450" y="0" type="line"/>
      <point x="1632" y="0" type="line"/>
      <point x="1810" y="1456" type="line"/>
      <point x="1583" y="1456" type="line"/>
      <point x="1028" y="473" type="line"/>
      <point x="903" y="247" type="line"/>
      <point x="836" y="469" type="line"/>
      <point x="523" y="1456" type="line"/>
      <point x="291" y="1456" type="line"/>
    </contour>
  </outline>
</glyph>
<glyph name="N" format="1">
  <advance width="1598"/>
  <unicode hex="004E"/>
  <outline>
    <contour>
      <point x="898" y="1456" type="move" name="top"/>
    </contour>
    <contour>
      <point x="752" y="0" type="move" name="bot"/>
    </contour>
    <contour>
      <point x="113" y="0" type="line"/>
      <point x="292" y="0" type="line"/>
      <point x="438" y="1186" type="line"/>
      <point x="540" y="986" type="line"/>
      <point x="1104" y="0" type="line"/>
      <point x="1308" y="0" type="line"/>
      <point x="1486" y="1456" type="line"/>
      <point x="1304" y="1456" type="line"/>
      <point x="1157" y="262" type="line"/>
      <point x="1071" y="432" type="line"/>
      <point x="494" y="1456" type="line"/>
      <point x="291" y="1456" type="line"/>
    </contour>
  </outline>
</glyph>
<glyph name="O" format="1">
  <advance width="1626"/>
  <unicode hex="004F"/>
  <outline>
    <contour>
      <point x="906" y="1456" type="move" name="top"/>
    </contour>
    <contour>
      <point x="784" y="0" type="move" name="ogonek"/>
    </contour>
    <contour>
      <point x="741" y="139" type="curve" smooth="yes"/>
      <point x="412" y="139"/>
      <point x="267" y="371"/>
      <point x="311" y="729" type="curve" smooth="yes"/>
      <point x="354" y="1075"/>
      <point x="560" y="1321"/>
      <point x="888" y="1321" type="curve" smooth="yes"/>
      <point x="1219" y="1321"/>
      <point x="1355" y="1076"/>
      <point x="1312" y="729" type="curve" smooth="yes"/>
      <point x="1268" y="372"/>
      <point x="1074" y="139"/>
    </contour>
    <contour>
      <point x="724" y="-22" type="curve" smooth="yes"/>
      <point x="1164" y="-22"/>
      <point x="1464" y="273"/>
      <point x="1519" y="729" type="curve" smooth="yes"/>
      <point x="1575" y="1176"/>
      <point x="1342" y="1482"/>
      <point x="910" y="1482" type="curve" smooth="yes"/>
      <point x="463" y="1482"/>
      <point x="161" y="1175"/>
      <point x="107" y="729" type="curve" smooth="yes"/>
      <point x="51" y="272"/>
      <point x="281" y="-22"/>
    </contour>
  </outline>
</glyph>
<glyph name="P" format="1">
  <advance width="1260"/>
  <unicode hex="0050"/>
  <outline>
    <contour>
      <point x="736" y="1456" type="move" name="top"/>
    </contour>
    <contour>
      <point x="113" y="0" type="line"/>
      <point x="304" y="0" type="line"/>
      <point x="384" y="660" type="line"/>
      <point x="652" y="660" type="line" smooth="yes"/>
      <point x="982" y="660"/>
      <point x="1196" y="758"/>
      <point x="1232" y="1057" type="curve" smooth="yes"/>
      <point x="1273" y="1392"/>
      <point x="1052" y="1456"/>
      <point x="710" y="1456" type="curve" smooth="yes"/>
      <point x="291" y="1456" type="line"/>
    </contour>
    <contour>
      <point x="405" y="821" type="line"/>
      <point x="462" y="1295" type="line"/>
      <point x="695" y="1295" type="line" smooth="yes"/>
      <point x="935" y="1297"/>
      <point x="1062" y="1260"/>
      <point x="1037" y="1056" type="curve" smooth="yes"/>
      <point x="1015" y="873"/>
      <point x="889" y="821"/>
      <point x="670" y="821" type="curve" smooth="yes"/>
    </contour>
  </outline>
</glyph>
<glyph name="Q" format="1">
  <advance width="1626"/>
  <unicode hex="0051"/>
  <outline>
    <contour>
      <point x="1105" y="-428" type="curve"/>
      <point x="1233" y="-310" type="line"/>
      <point x="1233" y="-310"/>
      <point x="1059" y="-100"/>
      <point x="994" y="79" type="curve"/>
      <point x="819" y="45" type="line"/>
      <point x="902" y="-187"/>
      <point x="1105" y="-428"/>
    </contour>
    <component base="O"/>
  </outline>
</glyph>
<glyph name="R" format="1">
  <advance width="1362"/>
  <unicode hex="0052"/>
  <outline>
    <contour>
      <point x="741" y="1456" type="move" name="top"/>
    </contour>
    <contour>
      <point x="640" y="0" type="move" name="bot"/>
    </contour>
    <contour>
      <point x="113" y="0" type="line"/>
      <point x="304" y="0" type="line"/>
      <point x="383" y="647" type="line"/>
      <point x="644" y="647" type="line" smooth="yes"/>
      <point x="804" y="647"/>
      <point x="839" y="599"/>
      <point x="882" y="428" type="curve" smooth="yes"/>
      <point x="989" y="0" type="line"/>
      <point x="1193" y="0" type="line"/>
      <point x="1075" y="440" type="line" smooth="yes"/>
      <point x="1037" y="584"/>
      <point x="998" y="680"/>
      <point x="883" y="718" type="curve"/>
      <point x="1087" y="759"/>
      <point x="1189" y="894"/>
      <point x="1210" y="1069" type="curve" smooth="yes"/>
      <point x="1249" y="1386"/>
      <point x="1039" y="1456"/>
      <point x="757" y="1456" type="curve" smooth="yes"/>
      <point x="291" y="1456" type="line"/>
    </contour>
    <contour>
      <point x="401" y="808" type="line"/>
      <point x="461" y="1295" type="line"/>
      <point x="741" y="1295" type="line" smooth="yes"/>
      <point x="943" y="1297"/>
      <point x="1031" y="1246"/>
      <point x="1008" y="1058" type="curve" smooth="yes"/>
      <point x="985" y="868"/>
      <point x="852" y="808"/>
      <point x="672" y="808" type="curve" smooth="yes"/>
    </contour>
  </outline>
</glyph>
<glyph name="S" format="1">
  <advance width="1214"/>
  <unicode hex="0053"/>
  <outline>
    <contour>
      <point x="712" y="1456" type="move" name="top"/>
    </contour>
    <contour>
      <point x="548" y="0" type="move" name="bot"/>
    </contour>
    <contour>
      <point x="516" y="-22" type="curve" smooth="yes"/>
      <point x="787" y="-22"/>
      <point x="1023" y="108"/>
      <point x="1058" y="380" type="curve" smooth="yes"/>
      <point x="1088" y="615"/>
      <point x="1008" y="728"/>
      <point x="681" y="829" type="curve" smooth="yes"/>
      <point x="661" y="834"/>
      <point x="615" y="848"/>
      <point x="598" y="853" type="curve"/>
      <point x="402" y="917"/>
      <point x="366" y="965"/>
      <point x="383" y="1104" type="curve" smooth="yes"/>
      <point x="401" y="1251"/>
      <point x="537" y="1321"/>
      <point x="712" y="1321" type="curve" smooth="yes"/>
      <point x="866" y="1321"/>
      <point x="975" y="1259"/>
      <point x="1029" y="1201" type="curve"/>
      <point x="1140" y="1330" type="line"/>
      <point x="1084" y="1392"/>
      <point x="978" y="1482"/>
      <point x="709" y="1482" type="curve" smooth="yes"/>
      <point x="434" y="1482"/>
      <point x="210" y="1351"/>
      <point x="180" y="1098" type="curve" smooth="yes"/>
      <point x="150" y="857"/>
      <point x="274" y="757"/>
      <point x="527" y="681" type="curve" smooth="yes"/>
      <point x="548" y="674"/>
      <point x="597" y="661"/>
      <point x="614" y="655" type="curve" smooth="yes"/>
      <point x="841" y="581"/>
      <point x="878" y="520"/>
      <point x="860" y="381" type="curve" smooth="yes"/>
      <point x="840" y="229"/>
      <point x="724" y="139"/>
      <point x="528" y="139" type="curve" smooth="yes"/>
      <point x="356" y="139"/>
      <point x="215" y="229"/>
      <point x="159" y="280" type="curve"/>
      <point x="57" y="142" type="line"/>
      <point x="108" y="86"/>
      <point x="271" y="-22"/>
    </contour>
  </outline>
</glyph>
<glyph name="T" format="1">
  <advance width="1145"/>
  <unicode hex="0054"/>
  <outline>
    <contour>
      <point x="660" y="1456" type="move" name="top"/>
    </contour>
    <contour>
      <point x="491" y="0" type="move" name="bot"/>
    </contour>
    <contour>
      <point x="574" y="750" type="move" name="mid"/>
    </contour>
    <contour>
      <point x="386" y="0" type="line"/>
      <point x="577" y="0" type="line"/>
      <point x="735" y="1295" type="line"/>
      <point x="1204" y="1295" type="line"/>
      <point x="1223" y="1456" type="line"/>
      <point x="99" y="1456" type="line"/>
      <point x="79" y="1295" type="line"/>
      <point x="544" y="1295" type="line"/>
    </contour>
  </outline>
</glyph>
<glyph name="U" format="1">
  <advance width="1495"/>
  <unicode hex="0055"/>
  <outline>
    <contour>
      <point x="838" y="1456" type="move" name="top"/>
    </contour>
    <contour>
      <point x="710" y="0" type="move" name="ogonek"/>
    </contour>
    <contour>
      <point x="653" y="-22" type="curve" smooth="yes"/>
      <point x="1073" y="-22"/>
      <point x="1260" y="218"/>
      <point x="1303" y="562" type="curve" smooth="yes"/>
      <point x="1413" y="1456" type="line"/>
      <point x="1223" y="1456" type="line"/>
      <point x="1112" y="552" type="line" smooth="yes"/>
      <point x="1077" y="265"/>
      <point x="919" y="139"/>
      <point x="675" y="139" type="curve" smooth="yes"/>
      <point x="424" y="139"/>
      <point x="305" y="267"/>
      <point x="341" y="556" type="curve" smooth="yes"/>
      <point x="452" y="1456" type="line"/>
      <point x="261" y="1456" type="line"/>
      <point x="150" y="560" type="line" smooth="yes"/>
      <point x="109" y="225"/>
      <point x="220" y="-22"/>
    </contour>
  </outline>
</glyph>
<glyph name="V" format="1">
  <advance width="1348"/>
  <unicode hex="0056"/>
  <outline>
    <contour>
      <point x="487" y="0" type="line"/>
      <point x="687" y="0" type="line"/>
      <point x="1407" y="1456" type="line"/>
      <point x="1206" y="1456" type="line"/>
      <point x="727" y="458" type="line"/>
      <point x="618" y="228" type="line"/>
      <point x="562" y="462" type="line"/>
      <point x="332" y="1456" type="line"/>
      <point x="119" y="1456" type="line"/>
    </contour>
  </outline>
</glyph>
<glyph name="W" format="1">
  <advance width="2022"/>
  <unicode hex="0057"/>
  <outline>
    <contour>
      <point x="1111" y="1456" type="move" name="top"/>
    </contour>
    <contour>
      <point x="351" y="0" type="line"/>
      <point x="571" y="0" type="line"/>
      <point x="1073" y="1199" type="line"/>
      <point x="1281" y="0" type="line"/>
      <point x="1504" y="0" type="line"/>
      <point x="2069" y="1456" type="line"/>
      <point x="1872" y="1456" type="line"/>
      <point x="1498" y="441" type="line"/>
      <point x="1421" y="220" type="line"/>
      <point x="1384" y="445" type="line"/>
      <point x="1203" y="1456" type="line"/>
      <point x="1012" y="1456" type="line"/>
      <point x="587" y="448" type="line"/>
      <point x="495" y="217" type="line"/>
      <point x="470" y="452" type="line"/>
      <point x="336" y="1456" type="line"/>
      <point x="131" y="1456" type="line"/>
    </contour>
  </outline>
</glyph>
<glyph name="Y" format="1">
  <advance width="1239"/>
  <unicode hex="0059"/>
  <outline>
    <contour>
      <point x="729" y="1456" type="move" name="top"/>
    </contour>
    <contour>
      <point x="433" y="0" type="line"/>
      <point x="625" y="0" type="line"/>
      <point x="695" y="578" type="line"/>
      <point x="1315" y="1456" type="line"/>
      <point x="1102" y="1456" type="line"/>
      <point x="624" y="743" type="line"/>
      <point x="322" y="1456" type="line"/>
      <point x="110" y="1456" type="line"/>
      <point x="504" y="575" type="line"/>
    </contour>
  </outline>
</glyph>
<glyph name="bracketleft" format="1">
  <advance width="660"/>
  <unicode hex="005B"/>
  <outline>
    <contour>
      <point x="68" y="-227" type="line"/>
      <point x="480" y="-227" type="line"/>
      <point x="497" y="-88" type="line"/>
      <point x="266" y="-88" type="line"/>
      <point x="440" y="1331" type="line"/>
      <point x="669" y="1331" type="line"/>
      <point x="686" y="1470" type="line"/>
      <point x="276" y="1470" type="line"/>
    </contour>
  </outline>
</glyph>
<glyph name="asciicircum" format="1">
  <advance width="1628"/>
  <unicode hex="005E"/>
  <outline>
    <contour>
      <point x="217" y="563" type="line"/>
      <point x="398" y="563" type="line"/>
      <point x="839" y="1256" type="line"/>
      <point x="1124" y="563" type="line"/>
      <point x="1303" y="563" type="line"/>
      <point x="922" y="1456" type="line"/>
      <point x="807" y="1456" type="line"/>
    </contour>
  </outline>
</glyph>
<glyph name="a" format="1">
  <advance width="1273"/>
  <unicode hex="0061"/>
  <outline>
    <contour>
      <point x="656" y="1026" type="move" name="top"/>
    </contour>
    <contour>
      <point x="957" y="0" type="move" name="ogonek"/>
    </contour>
    <contour>
      <point x="523" y="-22" type="curve" smooth="yes"/>
      <point x="677" y="-22"/>
      <point x="806" y="55"/>
      <point x="880" y="175" type="curve"/>
      <point x="858" y="0" type="line"/>
      <point x="1042" y="0" type="line"/>
      <point x="1168" y="1026" type="line"/>
      <point x="986" y="1026" type="line"/>
      <point x="966" y="863" type="line"/>
      <point x="920" y="970"/>
      <point x="805" y="1052"/>
      <point x="655" y="1052" type="curve" smooth="yes"/>
      <point x="354" y="1052"/>
      <point x="137" y="811"/>
      <point x="100" y="513" type="curve" smooth="yes"/>
      <point x="65" y="225"/>
      <point x="208" y="-22"/>
    </contour>
    <contour>
      <point x="568" y="128" type="curve" smooth="yes"/>
      <point x="344" y="128"/>
      <point x="260" y="300"/>
      <point x="287" y="518" type="curve" smooth="yes"/>
      <point x="313" y="736"/>
      <point x="438" y="902"/>
      <point x="660" y="902" type="curve" smooth="yes"/>
      <point x="870" y="902"/>
      <point x="957" y="738"/>
      <point x="930" y="521" type="curve" smooth="yes"/>
      <point x="902" y="288"/>
      <point x="778" y="128"/>
    </contour>
  </outline>
</glyph>
<glyph name="b" format="1">
  <advance width="1274"/>
  <unicode hex="0062"/>
  <outline>
    <contour>
      <point x="743" y="1026" type="move" name="top"/>
    </contour>
    <contour>
      <point x="611" y="-22" type="curve" smooth="yes"/>
      <point x="881" y="-22"/>
      <point x="1106" y="192"/>
      <point x="1146" y="526" type="curve" smooth="yes"/>
      <point x="1186" y="843"/>
      <point x="1030" y="1052"/>
      <point x="746" y="1052" type="curve" smooth="yes"/>
      <point x="558" y="1052"/>
      <point x="425" y="947"/>
      <point x="370" y="852" type="curve"/>
      <point x="448" y="1486" type="line"/>
      <point x="264" y="1486" type="line"/>
      <point x="115" y="270" type="line" smooth="yes"/>
      <point x="109" y="224"/>
      <point x="90" y="100"/>
      <point x="75" y="0" type="curve"/>
      <point x="262" y="0" type="line"/>
      <point x="285" y="174" type="line"/>
      <point x="322" y="68"/>
      <point x="440" y="-22"/>
    </contour>
    <contour>
      <point x="605" y="128" type="curve" smooth="yes"/>
      <point x="397" y="128"/>
      <point x="294" y="287"/>
      <point x="323" y="516" type="curve" smooth="yes"/>
      <point x="350" y="743"/>
      <point x="495" y="902"/>
      <point x="699" y="902" type="curve" smooth="yes"/>
      <point x="892" y="902"/>
      <point x="982" y="744"/>
      <point x="955" y="524" type="curve" smooth="yes"/>
      <point x="926" y="288"/>
      <point x="804" y="128"/>
    </contour>
  </outline>
</glyph>
<glyph name="c" format="1">
  <advance width="1064"/>
  <unicode hex="0063"/>
  <outline>
    <contour>
      <point x="665" y="1026" type="move" name="top"/>
    </contour>
    <contour>
      <point x="556" y="0" type="move" name="bot"/>
    </contour>
    <contour>
      <point x="558" y="-22" type="curve" smooth="yes"/>
      <point x="700" y="-22"/>
      <point x="821" y="18"/>
      <point x="924" y="91" type="curve"/>
      <point x="882" y="224" type="line"/>
      <point x="815" y="177"/>
      <point x="713" y="128"/>
      <point x="590" y="128" type="curve" smooth="yes"/>
      <point x="377" y="128"/>
      <point x="262" y="276"/>
      <point x="290" y="508" type="curve" smooth="yes"/>
      <point x="322" y="765"/>
      <point x="485" y="901"/>
      <point x="688" y="901" type="curve" smooth="yes"/>
      <point x="796" y="901"/>
      <point x="882" y="862"/>
      <point x="938" y="808" type="curve"/>
      <point x="1017" y="930" type="line"/>
      <point x="948" y="1009"/>
      <point x="833" y="1052"/>
      <point x="694" y="1052" type="curve" smooth="yes"/>
      <point x="376" y="1052"/>
      <point x="139" y="830"/>
      <point x="100" y="507" type="curve" smooth="yes"/>
      <point x="62" y="202"/>
      <point x="236" y="-22"/>
    </contour>
  </outline>
</glyph>
<glyph name="d" format="1">
  <advance width="1264"/>
  <unicode hex="0064"/>
  <outline>
    <contour>
      <point x="589" y="1026" type="move" name="top"/>
    </contour>
    <contour>
      <point x="935" y="1026" type="move" name="caron.alt"/>
    </contour>
    <contour>
      <point x="1049" y="1254" type="move" name="mid"/>
    </contour>
    <contour>
      <point x="478" y="-22" type="curve" smooth="yes"/>
      <point x="664" y="-22"/>
      <point x="791" y="78"/>
      <point x="841" y="174" type="curve"/>
      <point x="823" y="0" type="line"/>
      <point x="1010" y="0" type="line"/>
      <point x="1021" y="126"/>
      <point x="1029" y="204"/>
      <point x="1035" y="266" type="curve"/>
      <point x="1185" y="1486" type="line"/>
      <point x="1001" y="1486" type="line"/>
      <point x="926" y="872" type="line"/>
      <point x="895" y="962"/>
      <point x="787" y="1052"/>
      <point x="619" y="1052" type="curve" smooth="yes"/>
      <point x="317" y="1052"/>
      <point x="112" y="824"/>
      <point x="74" y="510" type="curve" smooth="yes"/>
      <point x="34" y="184"/>
      <point x="206" y="-22"/>
    </contour>
    <contour>
      <point x="522" y="128" type="curve" smooth="yes"/>
      <point x="322" y="128"/>
      <point x="238" y="289"/>
      <point x="264" y="514" type="curve" smooth="yes"/>
      <point x="293" y="742"/>
      <point x="422" y="902"/>
      <point x="621" y="902" type="curve" smooth="yes"/>
      <point x="821" y="902"/>
      <point x="914" y="741"/>
      <point x="887" y="522" type="curve" smooth="yes"/>
      <point x="858" y="287"/>
      <point x="728" y="128"/>
    </contour>
  </outline>
</glyph>
<glyph name="e" format="1">
  <advance width="1166"/>
  <unicode hex="0065"/>
  <outline>
    <contour>
      <point x="654" y="1026" type="move" name="top"/>
    </contour>
    <contour>
      <point x="667" y="0" type="move" name="ogonek"/>
    </contour>
    <contour>
      <point x="562" y="0" type="move" name="bot"/>
    </contour>
    <contour>
      <point x="568" y="-22" type="curve" smooth="yes"/>
      <point x="717" y="-22"/>
      <point x="857" y="22"/>
      <point x="975" y="106" type="curve"/>
      <point x="936" y="242" type="line"/>
      <point x="832" y="166"/>
      <point x="717" y="128"/>
      <point x="597" y="128" type="curve" smooth="yes"/>
      <point x="392" y="128"/>
      <point x="263" y="252"/>
      <point x="288" y="487" type="curve"/>
      <point x="1047" y="487" type="line"/>
      <point x="1052" y="507"/>
      <point x="1056" y="531"/>
      <point x="1057" y="536" type="curve" smooth="yes"/>
      <point x="1093" y="835"/>
      <point x="968" y="1052"/>
      <point x="672" y="1052" type="curve" smooth="yes"/>
      <point x="364" y="1052"/>
      <point x="138" y="822"/>
      <point x="101" y="510" type="curve" smooth="yes"/>
      <point x="61" y="190"/>
      <point x="240" y="-22"/>
    </contour>
    <contour>
      <point x="308" y="613" type="line"/>
      <point x="357" y="796"/>
      <point x="492" y="906"/>
      <point x="659" y="906" type="curve" smooth="yes"/>
      <point x="817" y="906"/>
      <point x="906" y="803"/>
      <point x="897" y="613" type="curve"/>
    </contour>
  </outline>
</glyph>
<glyph name="f" format="1">
  <advance width="727"/>
  <unicode hex="0066"/>
  <outline>
    <contour>
      <point x="446" y="1456" type="move" name="top"/>
    </contour>
    <contour>
      <point x="160" y="0" type="line"/>
      <point x="345" y="0" type="line"/>
      <point x="456" y="903" type="line"/>
      <point x="700" y="903" type="line"/>
      <point x="715" y="1026" type="line"/>
      <point x="471" y="1026" type="line"/>
      <point x="483" y="1125" type="line" smooth="yes"/>
      <point x="505" y="1300"/>
      <point x="525" y="1342"/>
      <point x="761" y="1342" type="curve"/>
      <point x="783" y="1485" type="line"/>
      <point x="736" y="1485" type="line" smooth="yes"/>
      <point x="386" y="1485"/>
      <point x="329" y="1371"/>
      <point x="297" y="1110" type="curve" smooth="yes"/>
      <point x="286" y="1026" type="line"/>
      <point x="104" y="1026" type="line"/>
      <point x="88" y="903" type="line"/>
      <point x="271" y="903" type="line"/>
    </contour>
  </outline>
</glyph>
<glyph name="g" format="1">
  <advance width="1267"/>
  <unicode hex="0067"/>
  <outline>
    <contour>
      <point x="639" y="1026" type="move" name="top"/>
    </contour>
    <contour>
      <point x="481" y="-418" type="curve" smooth="yes"/>
      <point x="847" y="-418"/>
      <point x="1029" y="-179"/>
      <point x="1068" y="140" type="curve" smooth="yes"/>
      <point x="1143" y="750" type="line" smooth="yes"/>
      <point x="1156" y="860"/>
      <point x="1189" y="1026"/>
      <point x="1189" y="1026" type="curve" smooth="yes"/>
      <point x="999" y="1026" type="line"/>
      <point x="977" y="874" type="line"/>
      <point x="934" y="968"/>
      <point x="839" y="1052"/>
      <point x="673" y="1052" type="curve" smooth="yes"/>
      <point x="362" y="1052"/>
      <point x="164" y="827"/>
      <point x="125" y="516" type="curve" smooth="yes"/>
      <point x="87" y="203"/>
      <point x="266" y="14"/>
      <point x="546" y="14" type="curve" smooth="yes"/>
      <point x="715" y="14"/>
      <point x="830" y="100"/>
      <point x="892" y="192" type="curve"/>
      <point x="879" y="85" type="line" smooth="yes"/>
      <point x="850" y="-158"/>
      <point x="704" y="-269"/>
      <point x="492" y="-269" type="curve" smooth="yes"/>
      <point x="376" y="-269"/>
      <point x="272" y="-240"/>
      <point x="160" y="-172" type="curve"/>
      <point x="112" y="-331" type="line"/>
      <point x="227" y="-391"/>
      <point x="346" y="-418"/>
    </contour>
    <contour>
      <point x="575" y="158" type="curve" smooth="yes"/>
      <point x="381" y="158"/>
      <point x="289" y="291"/>
      <point x="316" y="518" type="curve" smooth="yes"/>
      <point x="344" y="743"/>
      <point x="479" y="902"/>
      <point x="679" y="902" type="curve" smooth="yes"/>
      <point x="873" y="902"/>
      <point x="966" y="754"/>
      <point x="939" y="532" type="curve" smooth="yes"/>
      <point x="912" y="313"/>
      <point x="790" y="158"/>
    </contour>
  </outline>
</glyph>
<glyph name="h" format="1">
  <advance width="1237"/>
  <unicode hex="0068"/>
  <outline>
    <contour>
      <point x="733" y="1026" type="move" name="top"/>
    </contour>
    <contour>
      <point x="340" y="1254" type="move" name="mid"/>
    </contour>
    <contour>
      <point x="74" y="0" type="line"/>
      <point x="259" y="0" type="line"/>
      <point x="336" y="622" type="line" smooth="yes"/>
      <point x="354" y="769"/>
      <point x="526" y="902"/>
      <point x="693" y="902" type="curve" smooth="yes"/>
      <point x="848" y="902"/>
      <point x="903" y="814"/>
      <point x="878" y="614" type="curve" smooth="yes"/>
      <point x="803" y="0" type="line"/>
      <point x="987" y="0" type="line"/>
      <point x="1063" y="619" type="line" smooth="yes"/>
      <point x="1093" y="857"/>
      <point x="999" y="1052"/>
      <point x="737" y="1052" type="curve" smooth="yes"/>
      <point x="592" y="1052"/>
      <point x="440" y="977"/>
      <point x="365" y="865" type="curve"/>
      <point x="441" y="1486" type="line"/>
      <point x="257" y="1486" type="line"/>
    </contour>
  </outline>
</glyph>
<glyph name="i" format="1">
  <advance width="520"/>
  <unicode hex="0069"/>
  <outline>
    <contour>
      <point x="83" y="0" type="line"/>
      <point x="266" y="0" type="line"/>
      <point x="392" y="1026" type="line"/>
      <point x="209" y="1026" type="line"/>
    </contour>
    <contour>
      <point x="242" y="1285" type="line"/>
      <point x="423" y="1285" type="line"/>
      <point x="444" y="1456" type="line"/>
      <point x="262" y="1456" type="line"/>
    </contour>
  </outline>
</glyph>
<glyph name="k" format="1">
  <advance width="1111"/>
  <unicode hex="006B"/>
  <outline>
    <contour>
      <point x="731" y="1026" type="move" name="top"/>
    </contour>
    <contour>
      <point x="508" y="0" type="move" name="bot"/>
    </contour>
    <contour>
      <point x="82" y="0" type="line"/>
      <point x="267" y="0" type="line"/>
      <point x="326" y="485" type="line"/>
      <point x="755" y="0" type="line"/>
      <point x="1000" y="0" type="line"/>
      <point x="510" y="537" type="line"/>
      <point x="1090" y="1026" type="line"/>
      <point x="837" y="1026" type="line"/>
      <point x="339" y="587" type="line"/>
      <point x="449" y="1486" type="line"/>
      <point x="265" y="1486" type="line"/>
    </contour>
  </outline>
</glyph>
<glyph name="m" format="1">
  <advance width="1881"/>
  <unicode hex="006D"/>
  <outline>
    <contour>
      <point x="1058" y="1026" type="move" name="top"/>
    </contour>
    <contour>
      <point x="112" y="0" type="line"/>
      <point x="297" y="0" type="line"/>
      <point x="375" y="625" type="line" smooth="yes"/>
      <point x="403" y="775"/>
      <point x="540" y="902"/>
      <point x="706" y="902" type="curve" smooth="yes"/>
      <point x="853" y="902"/>
      <point x="891" y="780"/>
      <point x="873" y="629" type="curve" smooth="yes"/>
      <point x="795" y="0" type="line"/>
      <point x="979" y="0" type="line"/>
      <point x="1052" y="592" type="line" smooth="yes"/>
      <point x="1082" y="767"/>
      <point x="1232" y="902"/>
      <point x="1396" y="902" type="curve" smooth="yes"/>
      <point x="1529" y="902"/>
      <point x="1570" y="787"/>
      <point x="1548" y="613" type="curve" smooth="yes"/>
      <point x="1473" y="0" type="line"/>
      <point x="1657" y="0" type="line"/>
      <point x="1735" y="628" type="line" smooth="yes"/>
      <point x="1768" y="892"/>
      <point x="1668" y="1052"/>
      <point x="1431" y="1052" type="curve" smooth="yes"/>
      <point x="1269" y="1052"/>
      <point x="1128" y="967"/>
      <point x="1037" y="830" type="curve"/>
      <point x="1003" y="973"/>
      <point x="897" y="1052"/>
      <point x="752" y="1052" type="curve" smooth="yes"/>
      <point x="613" y="1052"/>
      <point x="471" y="982"/>
      <point x="399" y="860" type="curve"/>
      <point x="418" y="1026" type="line"/>
      <point x="227" y="1026" type="line"/>
      <point x="223" y="967"/>
      <point x="219" y="871"/>
      <point x="205" y="758" type="curve" smooth="yes"/>
    </contour>
  </outline>
</glyph>
<glyph name="n" format="1">
  <advance width="1244"/>
  <unicode hex="006E"/>
  <outline>
    <contour>
      <point x="746" y="1026" type="move" name="top"/>
    </contour>
    <contour>
      <point x="606" y="0" type="move" name="bot"/>
    </contour>
    <contour>
      <point x="112" y="0" type="line"/>
      <point x="297" y="0" type="line"/>
      <point x="376" y="643" type="line" smooth="yes"/>
      <point x="404" y="778"/>
      <point x="566" y="902"/>
      <point x="722" y="902" type="curve" smooth="yes"/>
      <point x="897" y="902"/>
      <point x="934" y="789"/>
      <point x="908" y="577" type="curve" smooth="yes"/>
      <point x="837" y="0" type="line"/>
      <point x="1021" y="0" type="line"/>
      <point x="1093" y="578" type="line" smooth="yes"/>
      <point x="1131" y="894"/>
      <point x="1033" y="1052"/>
      <point x="773" y="1052" type="curve" smooth="yes"/>
      <point x="636" y="1052"/>
      <point x="486" y="986"/>
      <point x="400" y="865" type="curve"/>
      <point x="417" y="1026" type="line"/>
      <point x="227" y="1026" type="line" smooth="yes"/>
      <point x="227" y="1026"/>
      <point x="223" y="896"/>
      <point x="203" y="742" type="curve" smooth="yes"/>
    </contour>
  </outline>
</glyph>
<glyph name="o" format="1">
  <advance width="1258"/>
  <unicode hex="006F"/>
  <outline>
    <contour>
      <point x="696" y="1026" type="move" name="top"/>
    </contour>
    <contour>
      <point x="581" y="0" type="move" name="ogonek"/>
    </contour>
    <contour>
      <point x="584" y="128" type="curve" smooth="yes"/>
      <point x="359" y="128"/>
      <point x="266" y="288"/>
      <point x="293" y="512" type="curve" smooth="yes"/>
      <point x="321" y="741"/>
      <point x="456" y="902"/>
      <point x="677" y="902" type="curve" smooth="yes"/>
      <point x="898" y="902"/>
      <point x="992" y="741"/>
      <point x="964" y="512" type="curve" smooth="yes"/>
      <point x="937" y="288"/>
      <point x="806" y="128"/>
    </contour>
    <contour>
      <point x="565" y="-22" type="curve" smooth="yes"/>
      <point x="901" y="-22"/>
      <point x="1119" y="203"/>
      <point x="1157" y="512" type="curve" smooth="yes"/>
      <point x="1196" y="828"/>
      <point x="1037" y="1052"/>
      <point x="699" y="1052" type="curve" smooth="yes"/>
      <point x="361" y="1052"/>
      <point x="139" y="828"/>
      <point x="101" y="512" type="curve" smooth="yes"/>
      <point x="62" y="202"/>
      <point x="226" y="-22"/>
    </contour>
  </outline>
</glyph>
<glyph name="p" format="1">
  <advance width="1263"/>
  <unicode hex="0070"/>
  <outline>
    <contour>
      <point x="764" y="1026" type="move" name="top"/>
    </contour>
    <contour>
      <point x="87" y="-428" type="line"/>
      <point x="269" y="-428" type="line"/>
      <point x="343" y="166" type="line"/>
      <point x="366" y="72"/>
      <point x="489" y="-23"/>
      <point x="659" y="-23" type="curve" smooth="yes"/>
      <point x="943" y="-23"/>
      <point x="1150" y="212"/>
      <point x="1188" y="522" type="curve" smooth="yes"/>
      <point x="1225" y="828"/>
      <point x="1077" y="1051"/>
      <point x="795" y="1051" type="curve" smooth="yes"/>
      <point x="628" y="1051"/>
      <point x="476" y="951"/>
      <point x="425" y="842" type="curve"/>
      <point x="447" y="1026" type="line"/>
      <point x="254" y="1026" type="line"/>
      <point x="248" y="942"/>
      <point x="239" y="814"/>
      <point x="228" y="728" type="curve" smooth="yes"/>
    </contour>
    <contour>
      <point x="646" y="127" type="curve" smooth="yes"/>
      <point x="443" y="127"/>
      <point x="351" y="282"/>
      <point x="378" y="503" type="curve" smooth="yes"/>
      <point x="407" y="736"/>
      <point x="540" y="901"/>
      <point x="742" y="901" type="curve" smooth="yes"/>
      <point x="938" y="901"/>
      <point x="1023" y="742"/>
      <point x="995" y="516" type="curve" smooth="yes"/>
      <point x="968" y="289"/>
      <point x="845" y="127"/>
    </contour>
  </outline>
</glyph>
<glyph name="q" format="1">
  <advance width="1259"/>
  <unicode hex="0071"/>
  <outline>
    <contour>
      <point x="808" y="-419" type="line"/>
      <point x="992" y="-419" type="line"/>
      <point x="1141" y="792" type="line" smooth="yes"/>
      <point x="1144" y="818"/>
      <point x="1172" y="999"/>
      <point x="1177" y="1026" type="curve"/>
      <point x="987" y="1026" type="line"/>
      <point x="968" y="884" type="line"/>
      <point x="917" y="986"/>
      <point x="810" y="1052"/>
      <point x="672" y="1052" type="curve" smooth="yes"/>
      <point x="375" y="1052"/>
      <point x="163" y="832"/>
      <point x="124" y="512" type="curve" smooth="yes"/>
      <point x="85" y="198"/>
      <point x="243" y="-22"/>
      <point x="532" y="-22" type="curve" smooth="yes"/>
      <point x="694" y="-22"/>
      <point x="814" y="68"/>
      <point x="878" y="150" type="curve"/>
    </contour>
    <contour>
      <point x="573" y="129" type="curve" smooth="yes"/>
      <point x="380" y="129"/>
      <point x="291" y="283"/>
      <point x="319" y="510" type="curve" smooth="yes"/>
      <point x="347" y="744"/>
      <point x="480" y="901"/>
      <point x="674" y="901" type="curve" smooth="yes"/>
      <point x="863" y="901"/>
      <point x="956" y="750"/>
      <point x="928" y="531" type="curve" smooth="yes"/>
      <point x="899" y="288"/>
      <point x="772" y="129"/>
    </contour>
  </outline>
</glyph>
<glyph name="r" format="1">
  <advance width="803"/>
  <unicode hex="0072"/>
  <outline>
    <contour>
      <point x="579" y="1026" type="move" name="top"/>
    </contour>
    <contour>
      <point x="236" y="0" type="move" name="bot"/>
    </contour>
    <contour>
      <point x="115" y="0" type="line"/>
      <point x="300" y="0" type="line"/>
      <point x="370" y="571" type="line" smooth="yes"/>
      <point x="397" y="784"/>
      <point x="520" y="891"/>
      <point x="672" y="891" type="curve" smooth="yes"/>
      <point x="712" y="891"/>
      <point x="751" y="884"/>
      <point x="783" y="875" type="curve"/>
      <point x="804" y="1038" type="line"/>
      <point x="770" y="1047"/>
      <point x="735" y="1050"/>
      <point x="702" y="1050" type="curve" smooth="yes"/>
      <point x="585" y="1050"/>
      <point x="480" y="987"/>
      <point x="405" y="866" type="curve"/>
      <point x="422" y="1026" type="line"/>
      <point x="228" y="1026" type="line" smooth="yes"/>
      <point x="228" y="1026"/>
      <point x="219" y="851"/>
      <point x="210" y="774" type="curve" smooth="yes"/>
    </contour>
  </outline>
</glyph>
<glyph name="s" format="1">
  <advance width="978"/>
  <unicode hex="0073"/>
  <outline>
    <contour>
      <point x="550" y="1026" type="move" name="top"/>
    </contour>
    <contour>
      <point x="463" y="0" type="move" name="bot"/>
    </contour>
    <contour>
      <point x="452" y="-22" type="curve" smooth="yes"/>
      <point x="631" y="-22"/>
      <point x="825" y="59"/>
      <point x="853" y="286" type="curve" smooth="yes"/>
      <point x="877" y="475"/>
      <point x="757" y="530"/>
      <point x="586" y="593" type="curve" smooth="yes"/>
      <point x="564" y="602"/>
      <point x="506" y="622"/>
      <point x="488" y="628" type="curve" smooth="yes"/>
      <point x="372" y="672"/>
      <point x="334" y="694"/>
      <point x="343" y="772" type="curve"/>
      <point x="353" y="855"/>
      <point x="434" y="902"/>
      <point x="566" y="902" type="curve" smooth="yes"/>
      <point x="683" y="902"/>
      <point x="787" y="853"/>
      <point x="828" y="830" type="curve"/>
      <point x="895" y="962" type="line"/>
      <point x="836" y="1003"/>
      <point x="728" y="1051"/>
      <point x="564" y="1051" type="curve" smooth="yes"/>
      <point x="375" y="1051"/>
      <point x="185" y="970"/>
      <point x="160" y="767" type="curve" smooth="yes"/>
      <point x="139" y="594"/>
      <point x="245" y="533"/>
      <point x="389" y="479" type="curve" smooth="yes"/>
      <point x="474" y="449" type="line" smooth="yes"/>
      <point x="627" y="395"/>
      <point x="689" y="369"/>
      <point x="679" y="279" type="curve" smooth="yes"/>
      <point x="663" y="160"/>
      <point x="561" y="129"/>
      <point x="456" y="129" type="curve" smooth="yes"/>
      <point x="320" y="129"/>
      <point x="200" y="193"/>
      <point x="143" y="239" type="curve"/>
      <point x="75" y="102" type="line"/>
      <point x="120" y="62"/>
      <point x="249" y="-22"/>
    </contour>
  </outline>
</glyph>
<glyph name="t" format="1">
  <advance width="803"/>
  <unicode hex="0074"/>
  <outline>
    <contour>
      <point x="411" y="1347" type="move" name="top"/>
    </contour>
    <contour>
      <point x="334" y="1280" type="move" name="caron.alt"/>
    </contour>
    <contour>
      <point x="451" y="6" type="move" name="bot"/>
    </contour>
    <contour>
      <point x="349" y="604" type="move" name="mid"/>
    </contour>
    <contour>
      <point x="622" y="0" type="curve"/>
      <point x="639" y="144" type="line"/>
      <point x="407" y="144"/>
      <point x="362" y="169"/>
      <point x="384" y="345" type="curve" smooth="yes"/>
      <point x="453" y="903" type="line"/>
      <point x="730" y="903" type="line"/>
      <point x="746" y="1026" type="line"/>
      <point x="468" y="1026" type="line"/>
      <point x="506" y="1343" type="line"/>
      <point x="319" y="1290" type="line"/>
      <point x="287" y="1026" type="line"/>
      <point x="87" y="1026" type="line"/>
      <point x="72" y="903" type="line"/>
      <point x="268" y="903" type="line"/>
      <point x="201" y="355" type="line" smooth="yes"/>
      <point x="168" y="87"/>
      <point x="246" y="3"/>
      <point x="537" y="0" type="curve" smooth="yes"/>
      <point x="539" y="0"/>
      <point x="619" y="0"/>
    </contour>
  </outline>
</glyph>
<glyph name="u" format="1">
  <advance width="1234"/>
  <unicode hex="0075"/>
  <outline>
    <contour>
      <point x="672" y="1026" type="move" name="top"/>
    </contour>
    <contour>
      <point x="916" y="0" type="move" name="ogonek"/>
    </contour>
    <contour>
      <point x="491" y="-23" type="curve" smooth="yes"/>
      <point x="662" y="-23"/>
      <point x="774" y="76"/>
      <point x="833" y="165" type="curve"/>
      <point x="817" y="0" type="line"/>
      <point x="1004" y="0" type="line"/>
      <point x="1007" y="39"/>
      <point x="1017" y="175"/>
      <point x="1026" y="254" type="curve" smooth="yes"/>
      <point x="1121" y="1026" type="line"/>
      <point x="937" y="1026" type="line"/>
      <point x="860" y="403" type="line" smooth="yes"/>
      <point x="841" y="246"/>
      <point x="725" y="127"/>
      <point x="539" y="127" type="curve" smooth="yes"/>
      <point x="383" y="127"/>
      <point x="308" y="214"/>
      <point x="330" y="392" type="curve" smooth="yes"/>
      <point x="407" y="1026" type="line"/>
      <point x="224" y="1026" type="line"/>
      <point x="146" y="392" type="line" smooth="yes"/>
      <point x="117" y="151"/>
      <point x="217" y="-23"/>
    </contour>
  </outline>
</glyph>
<glyph name="v" format="1">
  <advance width="1056"/>
  <unicode hex="0076"/>
  <outline>
    <contour>
      <point x="378" y="0" type="line"/>
      <point x="554" y="0" type="line"/>
      <point x="1110" y="1026" type="line"/>
      <point x="913" y="1026" type="line"/>
      <point x="584" y="377" type="line"/>
      <point x="496" y="190" type="line"/>
      <point x="449" y="377" type="line"/>
      <point x="275" y="1026" type="line"/>
      <point x="74" y="1026" type="line"/>
    </contour>
  </outline>
</glyph>
<glyph name="w" format="1">
  <advance width="1636"/>
  <unicode hex="0077"/>
  <outline>
    <contour>
      <point x="902" y="1026" type="move" name="top"/>
    </contour>
    <contour>
      <point x="309" y="0" type="line"/>
      <point x="481" y="0" type="line"/>
      <point x="797" y="665" type="line"/>
      <point x="861" y="803" type="line"/>
      <point x="889" y="664" type="line"/>
      <point x="1028" y="0" type="line"/>
      <point x="1201" y="0" type="line"/>
      <point x="1668" y="1026" type="line"/>
      <point x="1489" y="1026" type="line"/>
      <point x="1198" y="325" type="line"/>
      <point x="1152" y="215" type="line"/>
      <point x="1130" y="327" type="line"/>
      <point x="988" y="1026" type="line"/>
      <point x="809" y="1026" type="line"/>
      <point x="490" y="333" type="line"/>
      <point x="436" y="216" type="line"/>
      <point x="413" y="339" type="line"/>
      <point x="290" y="1026" type="line"/>
      <point x="94" y="1026" type="line"/>
    </contour>
  </outline>
</glyph>
<glyph name="y" format="1">
  <advance width="1065"/>
  <unicode hex="0079"/>
  <outline>
    <contour>
      <point x="639" y="1026" type="move" name="top"/>
    </contour>
    <contour>
      <point x="119" y="-433" type="line"/>
      <point x="319" y="-385"/>
      <point x="480" y="-245"/>
      <point x="576" y="-54" type="curve" smooth="yes"/>
      <point x="1123" y="1026" type="line"/>
      <point x="938" y="1026" type="line"/>
      <point x="539" y="206" type="line"/>
      <point x="323" y="1026" type="line"/>
      <point x="131" y="1026" type="line"/>
      <point x="425" y="8" type="line"/>
      <point x="402" y="-44" type="line" smooth="yes"/>
      <point x="356" y="-143"/>
      <point x="264" y="-242"/>
      <point x="60" y="-307" type="curve"/>
    </contour>
  </outline>
</glyph>
<glyph name="z" format="1">
  <advance width="969"/>
  <unicode hex="007A"/>
  <outline>
    <contour>
      <point x="569" y="1026" type="move" name="top"/>
    </contour>
    <contour>
      <point x="41" y="0" type="line"/>
      <point x="830" y="0" type="line"/>
      <point x="848" y="148" type="line"/>
      <point x="297" y="148" type="line"/>
      <point x="929" y="928" type="line"/>
      <point x="940" y="1026" type="line"/>
      <point x="183" y="1026" type="line"/>
      <point x="165" y="877" type="line"/>
      <point x="685" y="877" type="line"/>
      <point x="53" y="100" type="line"/>
    </contour>
  </outline>
</glyph>
<glyph name="braceleft" format="1">
  <advance width="789"/>
  <unicode hex="007B"/>
  <outline>
    <contour>
      <point x="566" y="1130" type="line"/>
      <point x="583" y="1262"/>
      <point x="631" y="1331"/>
      <point x="787" y="1332" type="curve"/>
      <point x="804" y="1475" type="line"/>
      <point x="500" y="1475"/>
      <point x="404" y="1336"/>
      <point x="382" y="1155" type="curve" smooth="yes"/>
      <point x="352" y="910" type="line" smooth="yes"/>
      <point x="335" y="775"/>
      <point x="268" y="701"/>
      <point x="134" y="691" type="curve"/>
      <point x="118" y="565" type="line"/>
      <point x="261" y="553"/>
      <point x="299" y="475"/>
      <point x="281" y="329" type="curve" smooth="yes"/>
      <point x="251" y="83" type="line" smooth="yes"/>
      <point x="228" y="-104"/>
      <point x="309" y="-219"/>
      <point x="595" y="-221" type="curve"/>
      <point x="612" y="-78" type="line"/>
      <point x="479" y="-78"/>
      <point x="422" y="-43"/>
      <point x="439" y="98" type="curve" smooth="yes"/>
      <point x="471" y="354" type="line" smooth="yes"/>
      <point x="487" y="489"/>
      <point x="428" y="581"/>
      <point x="329" y="624" type="curve"/>
      <point x="431" y="658"/>
      <point x="518" y="737"/>
      <point x="534" y="868" type="curve" smooth="yes"/>
    </contour>
  </outline>
</glyph>
<glyph name="braceright" format="1">
  <advance width="787"/>
  <unicode hex="007D"/>
  <outline>
    <contour>
      <point x="3" y="-221" type="line"/>
      <point x="308" y="-221"/>
      <point x="403" y="-81"/>
      <point x="426" y="100" type="curve" smooth="yes"/>
      <point x="455" y="345" type="line" smooth="yes"/>
      <point x="473" y="480"/>
      <point x="540" y="554"/>
      <point x="674" y="564" type="curve"/>
      <point x="690" y="690" type="line"/>
      <point x="547" y="702"/>
      <point x="509" y="780"/>
      <point x="527" y="926" type="curve" smooth="yes"/>
      <point x="557" y="1172" type="line" smooth="yes"/>
      <point x="580" y="1359"/>
      <point x="499" y="1473"/>
      <point x="213" y="1475" type="curve"/>
      <point x="196" y="1333" type="line"/>
      <point x="330" y="1333"/>
      <point x="386" y="1298"/>
      <point x="369" y="1157" type="curve" smooth="yes"/>
      <point x="337" y="901" type="line" smooth="yes"/>
      <point x="321" y="766"/>
      <point x="380" y="674"/>
      <point x="479" y="631" type="curve"/>
      <point x="378" y="597"/>
      <point x="291" y="518"/>
      <point x="274" y="387" type="curve" smooth="yes"/>
      <point x="242" y="125" type="line" smooth="yes"/>
      <point x="226" y="-7"/>
      <point x="177" y="-77"/>
      <point x="21" y="-77" type="curve"/>
    </contour>
  </outline>
</glyph>
<glyph name="DEL" format="1">
  <advance width="1521"/>
  <unicode hex="007F"/>
  <outline>
    <contour>
      <point x="286" y="124" type="line"/>
      <point x="434" y="1330" type="line"/>
      <point x="1235" y="1330" type="line"/>
      <point x="1087" y="124" type="line"/>
    </contour>
    <contour>
      <point x="99" y="0" type="line"/>
      <point x="1244" y="0" type="line"/>
      <point x="1422" y="1456" type="line"/>
      <point x="277" y="1456" type="line"/>
    </contour>
  </outline>
</glyph>
<glyph name="cent" format="1">
  <advance width="1030"/>
  <unicode hex="00A2"/>
  <outline>
    <contour>
      <point x="496" y="-213" type="line"/>
      <point x="579" y="-213" type="line"/>
      <point x="758" y="1252" type="line"/>
      <point x="675" y="1252" type="line"/>
    </contour>
    <component base="c"/>
  </outline>
</glyph>
<glyph name="sterling" format="1">
  <advance width="1203"/>
  <unicode hex="00A3"/>
  <outline>
    <contour>
      <point x="64" y="0" type="line"/>
      <point x="951" y="0" type="line"/>
      <point x="970" y="157" type="line"/>
      <point x="314" y="157" type="line"/>
      <point x="374" y="214"/>
      <point x="481" y="363"/>
      <point x="509" y="589" type="curve" smooth="yes"/>
      <point x="521" y="696" type="line"/>
      <point x="882" y="696" type="line"/>
      <point x="898" y="820" type="line"/>
      <point x="535" y="820" type="line"/>
      <point x="555" y="982" type="line" smooth="yes"/>
      <point x="582" y="1200"/>
      <point x="669" y="1318"/>
      <point x="860" y="1323" type="curve" smooth="yes"/>
      <point x="963" y="1326"/>
      <point x="1030" y="1292"/>
      <point x="1073" y="1265" type="curve"/>
      <point x="1140" y="1405" type="line"/>
      <point x="1088" y="1447"/>
      <point x="1010" y="1480"/>
      <point x="873" y="1480" type="curve" smooth="yes"/>
      <point x="518" y="1480"/>
      <point x="397" y="1242"/>
      <point x="361" y="939" type="curve" smooth="yes"/>
      <point x="346" y="820" type="line"/>
      <point x="157" y="820" type="line"/>
      <point x="141" y="696" type="line"/>
      <point x="332" y="696" type="line"/>
      <point x="319" y="591" type="line" smooth="yes"/>
      <point x="294" y="380"/>
      <point x="199" y="229"/>
      <point x="82" y="150" type="curve"/>
    </contour>
  </outline>
</glyph>
<glyph name="currency" format="1">
  <advance width="1218"/>
  <unicode hex="00A4"/>
  <outline>
    <contour>
      <point x="111" y="545" type="line"/>
      <point x="321" y="732" type="line"/>
      <point x="382" y="675"/>
      <point x="466" y="641"/>
      <point x="562" y="641" type="curve" smooth="yes"/>
      <point x="658" y="641"/>
      <point x="750" y="675"/>
      <point x="825" y="731" type="curve"/>
      <point x="988" y="545" type="line"/>
      <point x="1045" y="596" type="line"/>
      <point x="882" y="781" type="line"/>
      <point x="946" y="848"/>
      <point x="990" y="933"/>
      <point x="1001" y="1026" type="curve" smooth="yes"/>
      <point x="1013" y="1124"/>
      <point x="988" y="1212"/>
      <point x="936" y="1280" type="curve"/>
      <point x="1153" y="1473" type="line"/>
      <point x="1108" y="1524" type="line"/>
      <point x="889" y="1329" type="line"/>
      <point x="828" y="1380"/>
      <point x="748" y="1411"/>
      <point x="656" y="1411" type="curve" smooth="yes"/>
      <point x="564" y="1411"/>
      <point x="475" y="1380"/>
      <point x="403" y="1328" type="curve"/>
      <point x="230" y="1524" type="line"/>
      <point x="173" y="1473" type="line"/>
      <point x="344" y="1278" type="line"/>
      <point x="277" y="1211"/>
      <point x="230" y="1123"/>
      <point x="218" y="1026" type="curve" smooth="yes"/>
      <point x="207" y="933"/>
      <point x="229" y="849"/>
      <point x="276" y="783" type="curve"/>
      <point x="66" y="596" type="line"/>
    </contour>
    <contour>
      <point x="569" y="712" type="curve" smooth="yes"/>
      <point x="395" y="712"/>
      <point x="284" y="850"/>
      <point x="306" y="1024" type="curve" smooth="yes"/>
      <point x="327" y="1198"/>
      <point x="472" y="1333"/>
      <point x="646" y="1333" type="curve" smooth="yes"/>
      <point x="820" y="1333"/>
      <point x="931" y="1198"/>
      <point x="910" y="1024" type="curve" smooth="yes"/>
      <point x="888" y="850"/>
      <point x="743" y="712"/>
    </contour>
  </outline>
</glyph>
<glyph name="yen" format="1">
  <advance width="1221"/>
  <unicode hex="00A5"/>
  <outline>
    <contour>
      <point x="124" y="281" type="line"/>
      <point x="979" y="281" type="line"/>
      <point x="993" y="397" type="line"/>
      <point x="623" y="397" type="line"/>
      <point x="643" y="558" type="line"/>
      <point x="1013" y="558" type="line"/>
      <point x="1027" y="678" type="line"/>
      <point x="173" y="678" type="line"/>
      <point x="158" y="558" type="line"/>
      <point x="530" y="558" type="line"/>
      <point x="510" y="397" type="line"/>
      <point x="139" y="397" type="line"/>
    </contour>
    <component base="Y"/>
  </outline>
</glyph>
<glyph name="brokenbar" format="1">
  <advance width="500"/>
  <unicode hex="00A6"/>
  <outline>
    <contour>
      <point x="74" y="-482" type="line"/>
      <point x="234" y="-482" type="line"/>
      <point x="343" y="399" type="line"/>
      <point x="182" y="399" type="line"/>
    </contour>
    <contour>
      <point x="212" y="648" type="line"/>
      <point x="372" y="648" type="line"/>
      <point x="481" y="1535" type="line"/>
      <point x="321" y="1535" type="line"/>
    </contour>
  </outline>
</glyph>
<glyph name="section" format="1">
  <advance width="1069"/>
  <unicode hex="00A7"/>
  <outline>
    <contour>
      <point x="411" y="-75" type="curve" smooth="yes"/>
      <point x="626" y="-75"/>
      <point x="816" y="25"/>
      <point x="842" y="231" type="curve" smooth="yes"/>
      <point x="856" y="344"/>
      <point x="792" y="413"/>
      <point x="702" y="464" type="curve"/>
      <point x="802" y="523"/>
      <point x="899" y="614"/>
      <point x="912" y="721" type="curve" smooth="yes"/>
      <point x="930" y="864"/>
      <point x="816" y="930"/>
      <point x="664" y="1008" type="curve" smooth="yes"/>
      <point x="510" y="1084"/>
      <point x="447" y="1134"/>
      <point x="456" y="1208" type="curve" smooth="yes"/>
      <point x="468" y="1310"/>
      <point x="576" y="1352"/>
      <point x="698" y="1352" type="curve" smooth="yes"/>
      <point x="771" y="1352"/>
      <point x="851" y="1337"/>
      <point x="918" y="1311" type="curve"/>
      <point x="934" y="1446" type="line"/>
      <point x="855" y="1474"/>
      <point x="775" y="1486"/>
      <point x="688" y="1486" type="curve" smooth="yes"/>
      <point x="485" y="1486"/>
      <point x="298" y="1396"/>
      <point x="275" y="1201" type="curve" smooth="yes"/>
      <point x="260" y="1087"/>
      <point x="320" y="1023"/>
      <point x="415" y="958" type="curve"/>
      <point x="306" y="914"/>
      <point x="202" y="821"/>
      <point x="189" y="714" type="curve" smooth="yes"/>
      <point x="174" y="587"/>
      <point x="247" y="509"/>
      <point x="380" y="444" type="curve" smooth="yes"/>
      <point x="575" y="346"/>
      <point x="671" y="307"/>
      <point x="660" y="224" type="curve" smooth="yes"/>
      <point x="648" y="122"/>
      <point x="552" y="65"/>
      <point x="417" y="65" type="curve" smooth="yes"/>
      <point x="334" y="65"/>
      <point x="237" y="86"/>
      <point x="135" y="131" type="curve"/>
      <point x="116" y="-19" type="line"/>
      <point x="207" y="-56"/>
      <point x="314" y="-75"/>
    </contour>
    <contour>
      <point x="590" y="530" type="curve"/>
      <point x="448" y="595"/>
      <point x="355" y="638"/>
      <point x="365" y="727" type="curve" smooth="yes"/>
      <point x="374" y="800"/>
      <point x="463" y="859"/>
      <point x="531" y="888" type="curve"/>
      <point x="644" y="830"/>
      <point x="735" y="798"/>
      <point x="723" y="701" type="curve" smooth="yes"/>
      <point x="714" y="629"/>
      <point x="652" y="566"/>
    </contour>
  </outline>
</glyph>
<glyph name="copyright" format="1">
  <advance width="1728"/>
  <unicode hex="00A9"/>
  <outline>
    <contour>
      <point x="831" y="286" type="curve" smooth="yes"/>
      <point x="941" y="286"/>
      <point x="1042" y="319"/>
      <point x="1131" y="381" type="curve"/>
      <point x="1095" y="490" type="line"/>
      <point x="1028" y="442"/>
      <point x="941" y="411"/>
      <point x="854" y="411" type="curve" smooth="yes"/>
      <point x="692" y="411"/>
      <point x="585" y="520"/>
      <point x="610" y="719" type="curve" smooth="yes"/>
      <point x="637" y="948"/>
      <point x="786" y="1047"/>
      <point x="937" y="1047" type="curve" smooth="yes"/>
      <point x="1021" y="1047"/>
      <point x="1094" y="1014"/>
      <point x="1140" y="970" type="curve"/>
      <point x="1206" y="1072" type="line"/>
      <point x="1149" y="1137"/>
      <point x="1055" y="1173"/>
      <point x="944" y="1173" type="curve" smooth="yes"/>
      <point x="685" y="1173"/>
      <point x="484" y="992"/>
      <point x="451" y="718" type="curve" smooth="yes"/>
      <point x="419" y="459"/>
      <point x="586" y="286"/>
    </contour>
    <contour>
      <point x="784" y="75" type="curve" smooth="yes"/>
      <point x="429" y="75"/>
      <point x="181" y="371"/>
      <point x="225" y="725" type="curve" smooth="yes"/>
      <point x="268" y="1080"/>
      <point x="590" y="1381"/>
      <point x="945" y="1381" type="curve" smooth="yes"/>
      <point x="1298" y="1381"/>
      <point x="1546" y="1080"/>
      <point x="1502" y="725" type="curve" smooth="yes"/>
      <point x="1458" y="371"/>
      <point x="1137" y="75"/>
    </contour>
    <contour>
      <point x="771" y="-25" type="curve" smooth="yes"/>
      <point x="1188" y="-25"/>
      <point x="1570" y="312"/>
      <point x="1621" y="728" type="curve" smooth="yes"/>
      <point x="1672" y="1144"/>
      <point x="1373" y="1483"/>
      <point x="956" y="1483" type="curve" smooth="yes"/>
      <point x="540" y="1483"/>
      <point x="159" y="1144"/>
      <point x="108" y="728" type="curve" smooth="yes"/>
      <point x="56" y="312"/>
      <point x="355" y="-25"/>
    </contour>
  </outline>
</glyph>
<glyph name="ordfeminine" format="1">
  <advance width="791"/>
  <unicode hex="00AA"/>
  <outline>
    <contour>
      <point x="289" y="760" type="curve" smooth="yes"/>
      <point x="395" y="760"/>
      <point x="480" y="814"/>
      <point x="521" y="878" type="curve"/>
      <point x="517" y="783" type="line"/>
      <point x="658" y="783" type="line"/>
      <point x="662" y="849"/>
      <point x="663" y="877"/>
      <point x="667" y="917" type="curve"/>
      <point x="666" y="908"/>
      <point x="706" y="1220"/>
      <point x="707" y="1229" type="curve" smooth="yes"/>
      <point x="728" y="1414"/>
      <point x="609" y="1481"/>
      <point x="458" y="1481" type="curve" smooth="yes"/>
      <point x="292" y="1481"/>
      <point x="164" y="1414"/>
      <point x="164" y="1414" type="curve"/>
      <point x="194" y="1313" type="line"/>
      <point x="194" y="1313"/>
      <point x="316" y="1367"/>
      <point x="435" y="1367" type="curve" smooth="yes"/>
      <point x="535" y="1367"/>
      <point x="571" y="1324"/>
      <point x="558" y="1214" type="curve" smooth="yes"/>
      <point x="553" y="1178" type="line"/>
      <point x="379" y="1178" type="line" smooth="yes"/>
      <point x="190" y="1178"/>
      <point x="88" y="1099"/>
      <point x="72" y="969" type="curve" smooth="yes"/>
      <point x="56" y="839"/>
      <point x="151" y="760"/>
    </contour>
    <contour>
      <point x="317" y="867" type="curve" smooth="yes"/>
      <point x="247" y="867"/>
      <point x="202" y="904"/>
      <point x="210" y="974" type="curve" smooth="yes"/>
      <point x="225" y="1089"/>
      <point x="322" y="1089"/>
      <point x="542" y="1089" type="curve"/>
      <point x="540" y="1067" type="line" smooth="yes"/>
      <point x="525" y="949"/>
      <point x="435" y="867"/>
    </contour>
  </outline>
</glyph>
<glyph name="logicalnot" format="1">
  <advance width="1464"/>
  <unicode hex="00AC"/>
  <outline>
    <contour>
      <point x="1044" y="234" type="line"/>
      <point x="1214" y="234" type="line"/>
      <point x="1284" y="802" type="line"/>
      <point x="231" y="802" type="line"/>
      <point x="212" y="646" type="line"/>
      <point x="1094" y="646" type="line"/>
    </contour>
  </outline>
</glyph>
<glyph name="softhyphen" format="1">
  <advance width="679"/>
  <unicode hex="00AD"/>
  <outline>
    <contour>
      <point x="53" y="487" type="line"/>
      <point x="608" y="487" type="line"/>
      <point x="626" y="629" type="line"/>
      <point x="70" y="629" type="line"/>
    </contour>
  </outline>
</glyph>
<glyph name="registered" format="1">
  <advance width="1728"/>
  <unicode hex="00AE"/>
  <outline>
    <contour>
      <point x="488" y="278" type="line"/>
      <point x="653" y="278" type="line"/>
      <point x="699" y="660" type="line"/>
      <point x="858" y="660" type="line"/>
      <point x="995" y="278" type="line"/>
      <point x="1180" y="278" type="line"/>
      <point x="1019" y="681" type="line"/>
      <point x="1189" y="715"/>
      <point x="1243" y="812"/>
      <point x="1257" y="928" type="curve" smooth="yes"/>
      <point x="1278" y="1094"/>
      <point x="1172" y="1187"/>
      <point x="883" y="1187" type="curve" smooth="yes"/>
      <point x="600" y="1187" type="line"/>
    </contour>
    <contour>
      <point x="712" y="777" type="line"/>
      <point x="746" y="1055" type="line"/>
      <point x="862" y="1055" type="line" smooth="yes"/>
      <point x="1055" y="1055"/>
      <point x="1101" y="1038"/>
      <point x="1086" y="914" type="curve" smooth="yes"/>
      <point x="1072" y="801"/>
      <point x="988" y="777"/>
      <point x="829" y="777" type="curve" smooth="yes"/>
    </contour>
    <contour>
      <point x="784" y="75" type="curve" smooth="yes"/>
      <point x="429" y="75"/>
      <point x="181" y="371"/>
      <point x="225" y="725" type="curve" smooth="yes"/>
      <point x="268" y="1080"/>
      <point x="590" y="1381"/>
      <point x="945" y="1381" type="curve" smooth="yes"/>
      <point x="1298" y="1381"/>
      <point x="1546" y="1080"/>
      <point x="1502" y="725" type="curve" smooth="yes"/>
      <point x="1458" y="371"/>
      <point x="1137" y="75"/>
    </contour>
    <contour>
      <point x="771" y="-25" type="curve" smooth="yes"/>
      <point x="1188" y="-25"/>
      <point x="1570" y="312"/>
      <point x="1621" y="728" type="curve" smooth="yes"/>
      <point x="1672" y="1144"/>
      <point x="1373" y="1483"/>
      <point x="956" y="1483" type="curve" smooth="yes"/>
      <point x="540" y="1483"/>
      <point x="159" y="1144"/>
      <point x="108" y="728" type="curve" smooth="yes"/>
      <point x="56" y="312"/>
      <point x="355" y="-25"/>
    </contour>
  </outline>
</glyph>
<glyph name="macron" format="1">
  <advance width="720"/>
  <unicode hex="00AF"/>
  <outline>
    <contour>
      <point x="307" y="1026" type="move" name="_top"/>
    </contour>
    <contour>
      <point x="369" y="1306" type="move" name="_mid"/>
    </contour>
    <contour>
      <point x="61" y="1242" type="line"/>
      <point x="645" y="1242" type="line"/>
      <point x="660" y="1366" type="line"/>
      <point x="75" y="1366" type="line"/>
    </contour>
  </outline>
</glyph>
<glyph name="degree" format="1">
  <advance width="854"/>
  <unicode hex="00B0"/>
  <outline>
    <contour>
      <point x="404" y="968" type="curve" smooth="yes"/>
      <point x="292" y="968"/>
      <point x="235" y="1053"/>
      <point x="247" y="1153" type="curve" smooth="yes"/>
      <point x="260" y="1253"/>
      <point x="339" y="1336"/>
      <point x="449" y="1336" type="curve" smooth="yes"/>
      <point x="560" y="1336"/>
      <point x="620" y="1253"/>
      <point x="607" y="1153" type="curve" smooth="yes"/>
      <point x="595" y="1053"/>
      <point x="517" y="968"/>
    </contour>
    <contour>
      <point x="390" y="854" type="curve" smooth="yes"/>
      <point x="562" y="854"/>
      <point x="711" y="988"/>
      <point x="731" y="1152" type="curve" smooth="yes"/>
      <point x="752" y="1318"/>
      <point x="637" y="1450"/>
      <point x="463" y="1450" type="curve" smooth="yes"/>
      <point x="292" y="1450"/>
      <point x="144" y="1318"/>
      <point x="123" y="1152" type="curve" smooth="yes"/>
      <point x="102" y="988"/>
      <point x="219" y="854"/>
    </contour>
  </outline>
</glyph>
<glyph name="plusminus" format="1">
  <advance width="1232"/>
  <unicode hex="00B1"/>
  <outline>
    <contour>
      <point x="497" y="255" type="line"/>
      <point x="670" y="255" type="line"/>
      <point x="712" y="594" type="line"/>
      <point x="1041" y="594" type="line"/>
      <point x="1060" y="749" type="line"/>
      <point x="725" y="749" type="line"/>
      <point x="767" y="1089" type="line"/>
      <point x="596" y="1089" type="line"/>
      <point x="555" y="749" type="line"/>
      <point x="219" y="749" type="line"/>
      <point x="200" y="594" type="line"/>
      <point x="538" y="594" type="line"/>
    </contour>
    <contour>
      <point x="117" y="0" type="line"/>
      <point x="991" y="0" type="line"/>
      <point x="1006" y="132" type="line"/>
      <point x="133" y="132" type="line"/>
    </contour>
  </outline>
</glyph>
<glyph name="twosuperior" format="1">
  <advance width="1114"/>
  <unicode hex="00B2"/>
  <outline>
    <contour>
      <point x="257" y="619" type="line"/>
      <point x="807" y="619" type="line"/>
      <point x="821" y="728" type="line"/>
      <point x="445" y="728" type="line"/>
      <point x="643" y="894" type="line" smooth="yes"/>
      <point x="780" y="1008"/>
      <point x="871" y="1112"/>
      <point x="885" y="1226" type="curve" smooth="yes"/>
      <point x="902" y="1369"/>
      <point x="802" y="1456"/>
      <point x="647" y="1456" type="curve" smooth="yes"/>
      <point x="522" y="1456"/>
      <point x="409" y="1397"/>
      <point x="345" y="1295" type="curve"/>
      <point x="412" y="1212" type="line"/>
      <point x="465" y="1294"/>
      <point x="544" y="1336"/>
      <point x="624" y="1336" type="curve" smooth="yes"/>
      <point x="713" y="1336"/>
      <point x="756" y="1291"/>
      <point x="748" y="1224" type="curve" smooth="yes"/>
      <point x="740" y="1157"/>
      <point x="690" y="1083"/>
      <point x="577" y="985" type="curve" smooth="yes"/>
      <point x="270" y="719" type="line"/>
    </contour>
  </outline>
</glyph>
<glyph name="threesuperior" format="1">
  <advance width="1064"/>
  <unicode hex="00B3"/>
  <outline>
    <contour>
      <point x="487" y="601" type="curve" smooth="yes"/>
      <point x="646" y="601"/>
      <point x="784" y="691"/>
      <point x="804" y="851" type="curve" smooth="yes"/>
      <point x="815" y="943"/>
      <point x="771" y="1023"/>
      <point x="658" y="1051" type="curve"/>
      <point x="773" y="1080"/>
      <point x="819" y="1156"/>
      <point x="828" y="1231" type="curve" smooth="yes"/>
      <point x="846" y="1377"/>
      <point x="739" y="1456"/>
      <point x="594" y="1456" type="curve" smooth="yes"/>
      <point x="496" y="1456"/>
      <point x="388" y="1418"/>
      <point x="315" y="1357" type="curve"/>
      <point x="359" y="1265" type="line"/>
      <point x="426" y="1314"/>
      <point x="502" y="1341"/>
      <point x="571" y="1341" type="curve" smooth="yes"/>
      <point x="655" y="1341"/>
      <point x="704" y="1302"/>
      <point x="694" y="1223" type="curve" smooth="yes"/>
      <point x="684" y="1141"/>
      <point x="607" y="1102"/>
      <point x="499" y="1102" type="curve" smooth="yes"/>
      <point x="431" y="1102" type="line"/>
      <point x="417" y="989" type="line"/>
      <point x="490" y="989" type="line" smooth="yes"/>
      <point x="614" y="989"/>
      <point x="682" y="943"/>
      <point x="671" y="854" type="curve" smooth="yes"/>
      <point x="660" y="768"/>
      <point x="590" y="715"/>
      <point x="495" y="715" type="curve" smooth="yes"/>
      <point x="430" y="715"/>
      <point x="358" y="742"/>
      <point x="302" y="793" type="curve"/>
      <point x="234" y="696" type="line"/>
      <point x="294" y="634"/>
      <point x="389" y="601"/>
    </contour>
  </outline>
</glyph>
<glyph name="acute" format="1">
  <advance width="607"/>
  <unicode hex="00B4"/>
  <outline>
    <contour>
      <point x="101" y="1026" type="move" name="_top"/>
    </contour>
    <contour>
      <point x="51" y="1172" type="line"/>
      <point x="205" y="1172" type="line"/>
      <point x="568" y="1532" type="line"/>
      <point x="330" y="1532" type="line"/>
    </contour>
  </outline>
</glyph>
<glyph name="paragraph" format="1">
  <advance width="1210"/>
  <unicode hex="00B6"/>
  <outline>
    <contour>
      <point x="383" y="-179" type="line"/>
      <point x="519" y="-179" type="line"/>
      <point x="702" y="1315" type="line"/>
      <point x="893" y="1315" type="line"/>
      <point x="710" y="-179" type="line"/>
      <point x="845" y="-179" type="line"/>
      <point x="1028" y="1315" type="line"/>
      <point x="1132" y="1315" type="line"/>
      <point x="1149" y="1456" type="line"/>
      <point x="699" y="1456" type="line" smooth="yes"/>
      <point x="421" y="1456"/>
      <point x="221" y="1387"/>
      <point x="191" y="1133" type="curve" smooth="yes"/>
      <point x="166" y="929"/>
      <point x="316" y="818"/>
      <point x="504" y="813" type="curve"/>
    </contour>
  </outline>
</glyph>
<glyph name="periodcentered" format="1">
  <advance width="509"/>
  <unicode hex="00B7"/>
  <outline>
    <contour>
      <point x="3" y="616" type="move" name="_mid"/>
    </contour>
    <contour>
      <point x="269" y="517" type="line"/>
      <point x="469" y="517" type="line"/>
      <point x="493" y="717" type="line"/>
      <point x="294" y="717" type="line"/>
    </contour>
  </outline>
</glyph>
<glyph name="cedilla" format="1">
  <advance width="529"/>
  <unicode hex="00B8"/>
  <outline>
    <contour>
      <point x="244" y="0" type="move" name="_bot"/>
    </contour>
    <contour>
      <point x="193" y="-447" type="curve" smooth="yes"/>
      <point x="337" y="-448"/>
      <point x="457" y="-390"/>
      <point x="471" y="-279" type="curve" smooth="yes"/>
      <point x="481" y="-189"/>
      <point x="398" y="-132"/>
      <point x="262" y="-119" type="curve"/>
      <point x="298" y="9" type="line"/>
      <point x="201" y="9" type="line"/>
      <point x="145" y="-187" type="line"/>
      <point x="167" y="-187" type="line" smooth="yes"/>
      <point x="287" y="-187"/>
      <point x="321" y="-235"/>
      <point x="315" y="-274" type="curve" smooth="yes"/>
      <point x="310" y="-321"/>
      <point x="265" y="-350"/>
      <point x="196" y="-349" type="curve" smooth="yes"/>
      <point x="139" y="-349"/>
      <point x="69" y="-333"/>
      <point x="45" y="-322" type="curve"/>
      <point x="21" y="-419" type="line"/>
      <point x="52" y="-430"/>
      <point x="128" y="-447"/>
    </contour>
  </outline>
</glyph>
<glyph name="ordmasculine" format="1">
  <advance width="885"/>
  <unicode hex="00BA"/>
  <outline>
    <contour>
      <point x="419" y="879" type="curve" smooth="yes"/>
      <point x="282" y="879"/>
      <point x="216" y="965"/>
      <point x="234" y="1109" type="curve" smooth="yes"/>
      <point x="251" y="1248"/>
      <point x="344" y="1336"/>
      <point x="473" y="1336" type="curve" smooth="yes"/>
      <point x="604" y="1336"/>
      <point x="675" y="1248"/>
      <point x="657" y="1105" type="curve" smooth="yes"/>
      <point x="640" y="968"/>
      <point x="548" y="879"/>
    </contour>
    <contour>
      <point x="403" y="752" type="curve" smooth="yes"/>
      <point x="637" y="752"/>
      <point x="786" y="912"/>
      <point x="810" y="1107" type="curve" smooth="yes"/>
      <point x="834" y="1308"/>
      <point x="726" y="1466"/>
      <point x="489" y="1466" type="curve" smooth="yes"/>
      <point x="255" y="1466"/>
      <point x="103" y="1310"/>
      <point x="78" y="1111" type="curve" smooth="yes"/>
      <point x="53" y="909"/>
      <point x="160" y="752"/>
    </contour>
  </outline>
</glyph>
<glyph name="guillemotright" format="1">
  <advance width="1118"/>
  <unicode hex="00BB"/>
  <outline>
    <contour>
      <point x="89" y="168" type="line"/>
      <point x="252" y="168" type="line"/>
      <point x="574" y="543" type="line"/>
      <point x="349" y="916" type="line"/>
      <point x="188" y="916" type="line"/>
      <point x="382" y="543" type="line"/>
    </contour>
    <contour>
      <point x="519" y="168" type="line"/>
      <point x="681" y="168" type="line"/>
      <point x="1003" y="543" type="line"/>
      <point x="778" y="916" type="line"/>
      <point x="619" y="916" type="line"/>
      <point x="812" y="543" type="line"/>
    </contour>
  </outline>
</glyph>
<glyph name="onequarter" format="1">
  <advance width="1970"/>
  <unicode hex="00BC"/>
  <outline>
    <contour>
      <point x="199" y="631" type="line"/>
      <point x="658" y="631" type="line"/>
      <point x="672" y="742" type="line"/>
      <point x="522" y="742" type="line"/>
      <point x="609" y="1456" type="line"/>
      <point x="491" y="1456" type="line"/>
      <point x="474" y="1446"/>
      <point x="302" y="1378"/>
      <point x="277" y="1371" type="curve"/>
      <point x="262" y="1253" type="line"/>
      <point x="450" y="1317" type="line"/>
      <point x="380" y="744" type="line"/>
      <point x="214" y="744" type="line"/>
    </contour>
    <contour>
      <point x="1435" y="0" type="line"/>
      <point x="1570" y="0" type="line"/>
      <point x="1593" y="190" type="line"/>
      <point x="1705" y="190" type="line"/>
      <point x="1719" y="300" type="line"/>
      <point x="1608" y="300" type="line"/>
      <point x="1669" y="800" type="line"/>
      <point x="1523" y="800" type="line"/>
      <point x="1092" y="285" type="line"/>
      <point x="1080" y="190" type="line"/>
      <point x="1457" y="190" type="line"/>
    </contour>
    <contour>
      <point x="403" y="0" type="line"/>
      <point x="565" y="0" type="line"/>
      <point x="1642" y="1456" type="line"/>
      <point x="1483" y="1456" type="line"/>
    </contour>
    <contour>
      <point x="1225" y="300" type="line"/>
      <point x="1511" y="643" type="line"/>
      <point x="1469" y="300" type="line"/>
    </contour>
  </outline>
</glyph>
<glyph name="onehalf" format="1">
  <advance width="2126"/>
  <unicode hex="00BD"/>
  <outline>
    <contour>
      <point x="1194" y="0" type="line"/>
      <point x="1752" y="0" type="line"/>
      <point x="1767" y="124" type="line"/>
      <point x="1400" y="124" type="line"/>
      <point x="1584" y="272" type="line" smooth="yes"/>
      <point x="1732" y="389"/>
      <point x="1818" y="462"/>
      <point x="1830" y="605" type="curve" smooth="yes"/>
      <point x="1844" y="754"/>
      <point x="1742" y="840"/>
      <point x="1586" y="840" type="curve" smooth="yes"/>
      <point x="1466" y="840"/>
      <point x="1351" y="786"/>
      <point x="1280" y="692" type="curve"/>
      <point x="1342" y="597" type="line"/>
      <point x="1400" y="671"/>
      <point x="1485" y="714"/>
      <point x="1562" y="714" type="curve" smooth="yes"/>
      <point x="1647" y="714"/>
      <point x="1683" y="668"/>
      <point x="1680" y="603" type="curve" smooth="yes"/>
      <point x="1677" y="527"/>
      <point x="1637" y="480"/>
      <point x="1513" y="377" type="curve" smooth="yes"/>
      <point x="1209" y="126" type="line"/>
    </contour>
    <contour>
      <point x="372" y="0" type="line"/>
      <point x="534" y="0" type="line"/>
      <point x="1610" y="1456" type="line"/>
      <point x="1452" y="1456" type="line"/>
    </contour>
    <contour>
      <point x="198" y="631" type="line"/>
      <point x="656" y="631" type="line"/>
      <point x="671" y="742" type="line"/>
      <point x="520" y="742" type="line"/>
      <point x="607" y="1456" type="line"/>
      <point x="490" y="1456" type="line"/>
      <point x="473" y="1446"/>
      <point x="300" y="1378"/>
      <point x="276" y="1371" type="curve"/>
      <point x="261" y="1253" type="line"/>
      <point x="449" y="1317" type="line"/>
      <point x="378" y="744" type="line"/>
      <point x="212" y="744" type="line"/>
    </contour>
  </outline>
</glyph>
<glyph name="threequarters" format="1">
  <advance width="2126"/>
  <unicode hex="00BE"/>
  <outline>
    <contour>
      <point x="458" y="603" type="curve" smooth="yes"/>
      <point x="617" y="603"/>
      <point x="762" y="692"/>
      <point x="782" y="857" type="curve" smooth="yes"/>
      <point x="793" y="946"/>
      <point x="747" y="1024"/>
      <point x="639" y="1057" type="curve"/>
      <point x="744" y="1091"/>
      <point x="796" y="1163"/>
      <point x="805" y="1236" type="curve" smooth="yes"/>
      <point x="822" y="1381"/>
      <point x="713" y="1458"/>
      <point x="566" y="1458" type="curve" smooth="yes"/>
      <point x="467" y="1458"/>
      <point x="361" y="1422"/>
      <point x="282" y="1362" type="curve"/>
      <point x="328" y="1274" type="line"/>
      <point x="398" y="1323"/>
      <point x="471" y="1349"/>
      <point x="539" y="1349" type="curve" smooth="yes"/>
      <point x="621" y="1349"/>
      <point x="673" y="1301"/>
      <point x="663" y="1224" type="curve" smooth="yes"/>
      <point x="654" y="1148"/>
      <point x="579" y="1100"/>
      <point x="477" y="1100" type="curve" smooth="yes"/>
      <point x="403" y="1100" type="line"/>
      <point x="389" y="989" type="line"/>
      <point x="467" y="989" type="line" smooth="yes"/>
      <point x="585" y="989"/>
      <point x="650" y="943"/>
      <point x="640" y="859" type="curve" smooth="yes"/>
      <point x="630" y="776"/>
      <point x="557" y="715"/>
      <point x="464" y="715" type="curve" smooth="yes"/>
      <point x="400" y="715"/>
      <point x="332" y="741"/>
      <point x="272" y="792" type="curve"/>
      <point x="203" y="697" type="line"/>
      <point x="266" y="636"/>
      <point x="360" y="603"/>
    </contour>
    <contour>
      <point x="1445" y="0" type="line"/>
      <point x="1581" y="0" type="line"/>
      <point x="1604" y="190" type="line"/>
      <point x="1716" y="190" type="line"/>
      <point x="1730" y="300" type="line"/>
      <point x="1620" y="300" type="line"/>
      <point x="1681" y="800" type="line"/>
      <point x="1534" y="800" type="line"/>
      <point x="1103" y="285" type="line"/>
      <point x="1091" y="190" type="line"/>
      <point x="1469" y="190" type="line"/>
    </contour>
    <contour>
      <point x="439" y="0" type="line"/>
      <point x="602" y="0" type="line"/>
      <point x="1679" y="1456" type="line"/>
      <point x="1520" y="1456" type="line"/>
    </contour>
    <contour>
      <point x="1237" y="300" type="line"/>
      <point x="1522" y="643" type="line"/>
      <point x="1480" y="300" type="line"/>
    </contour>
  </outline>
</glyph>
<glyph name="multiply" format="1">
  <advance width="1231"/>
  <unicode hex="00D7"/>
  <outline>
    <contour>
      <point x="285" y="145" type="line"/>
      <point x="611" y="433" type="line"/>
      <point x="864" y="145" type="line"/>
      <point x="997" y="263" type="line"/>
      <point x="742" y="553" type="line"/>
      <point x="1068" y="842" type="line"/>
      <point x="965" y="960" type="line"/>
      <point x="639" y="670" type="line"/>
      <point x="385" y="960" type="line"/>
      <point x="253" y="842" type="line"/>
      <point x="507" y="553" type="line"/>
      <point x="182" y="262" type="line"/>
    </contour>
  </outline>
</glyph>
<glyph name="Oslash" format="1">
  <advance width="1626"/>
  <unicode hex="00D8"/>
  <outline>
    <contour>
      <point x="318" y="-131" type="line"/>
      <point x="1407" y="1525" type="line"/>
      <point x="1321" y="1572" type="line"/>
      <point x="231" y="-83" type="line"/>
    </contour>
    <component base="O"/>
  </outline>
</glyph>
<glyph name="Thorn" format="1">
  <advance width="1280"/>
  <unicode hex="00DE"/>
  <outline>
    <contour>
      <point x="111" y="0" type="line"/>
      <point x="302" y="0" type="line"/>
      <point x="345" y="347" type="line"/>
      <point x="596" y="347" type="line" smooth="yes"/>
      <point x="914" y="347"/>
      <point x="1173" y="471"/>
      <point x="1211" y="777" type="curve" smooth="yes"/>
      <point x="1256" y="1140"/>
      <point x="997" y="1212"/>
      <point x="657" y="1212" type="curve" smooth="yes"/>
      <point x="450" y="1212" type="line"/>
      <point x="480" y="1456" type="line"/>
      <point x="289" y="1456" type="line"/>
    </contour>
    <contour>
      <point x="364" y="508" type="line"/>
      <point x="431" y="1051" type="line"/>
      <point x="650" y="1051" type="line" smooth="yes"/>
      <point x="892" y="1051"/>
      <point x="1033" y="998"/>
      <point x="1006" y="776" type="curve" smooth="yes"/>
      <point x="983" y="589"/>
      <point x="830" y="508"/>
      <point x="621" y="508" type="curve" smooth="yes"/>
    </contour>
  </outline>
</glyph>
<glyph name="germandbls" format="1">
  <advance width="1251"/>
  <unicode hex="00DF"/>
  <outline>
    <contour>
      <point x="706" y="-24" type="curve" smooth="yes"/>
      <point x="914" y="-24"/>
      <point x="1101" y="118"/>
      <point x="1128" y="343" type="curve" smooth="yes"/>
      <point x="1160" y="595"/>
      <point x="977" y="730"/>
      <point x="779" y="805" type="curve"/>
      <point x="764" y="811"/>
      <point x="728" y="823"/>
      <point x="713" y="827" type="curve"/>
      <point x="729" y="832"/>
      <point x="768" y="846"/>
      <point x="783" y="854" type="curve"/>
      <point x="957" y="924"/>
      <point x="1050" y="1024"/>
      <point x="1069" y="1181" type="curve" smooth="yes"/>
      <point x="1092" y="1374"/>
      <point x="948" y="1503"/>
      <point x="696" y="1503" type="curve" smooth="yes"/>
      <point x="424" y="1503"/>
      <point x="240" y="1337"/>
      <point x="202" y="1026" type="curve" smooth="yes"/>
      <point x="77" y="0" type="line"/>
      <point x="258" y="0" type="line"/>
      <point x="384" y="1028" type="line" smooth="yes"/>
      <point x="409" y="1227"/>
      <point x="511" y="1355"/>
      <point x="678" y="1355" type="curve" smooth="yes"/>
      <point x="812" y="1355"/>
      <point x="890" y="1285"/>
      <point x="877" y="1174" type="curve" smooth="yes"/>
      <point x="862" y="1047"/>
      <point x="783" y="960"/>
      <point x="575" y="891" type="curve"/>
      <point x="557" y="751" type="line"/>
      <point x="820" y="635"/>
      <point x="954" y="521"/>
      <point x="931" y="331" type="curve" smooth="yes"/>
      <point x="915" y="203"/>
      <point x="822" y="132"/>
      <point x="711" y="125" type="curve" smooth="yes"/>
      <point x="594" y="116"/>
      <point x="457" y="174"/>
      <point x="438" y="182" type="curve"/>
      <point x="391" y="37" type="line"/>
      <point x="409" y="29"/>
      <point x="543" y="-24"/>
    </contour>
  </outline>
</glyph>
<glyph name="ae" format="1">
  <advance width="1791"/>
  <unicode hex="00E6"/>
  <outline>
    <contour>
      <point x="965" y="1026" type="move" name="top"/>
    </contour>
    <contour>
      <point x="402" y="-24" type="curve" smooth="yes"/>
      <point x="601" y="-24"/>
      <point x="762" y="84"/>
      <point x="845" y="226" type="curve"/>
      <point x="895" y="78"/>
      <point x="1028" y="-19"/>
      <point x="1205" y="-22" type="curve" smooth="yes"/>
      <point x="1452" y="-27"/>
      <point x="1612" y="105"/>
      <point x="1612" y="105" type="curve"/>
      <point x="1574" y="239" type="line"/>
      <point x="1574" y="239"/>
      <point x="1421" y="121"/>
      <point x="1229" y="128" type="curve" smooth="yes"/>
      <point x="1029" y="135"/>
      <point x="954" y="268"/>
      <point x="970" y="459" type="curve"/>
      <point x="973" y="486" type="line"/>
      <point x="1688" y="486" type="line"/>
      <point x="1688" y="486"/>
      <point x="1693" y="513"/>
      <point x="1694" y="523" type="curve" smooth="yes"/>
      <point x="1733" y="838"/>
      <point x="1606" y="1057"/>
      <point x="1316" y="1053" type="curve" smooth="yes"/>
      <point x="1162" y="1050"/>
      <point x="1026" y="967"/>
      <point x="938" y="840" type="curve"/>
      <point x="903" y="979"/>
      <point x="761" y="1053"/>
      <point x="623" y="1053" type="curve" smooth="yes"/>
      <point x="399" y="1053"/>
      <point x="236" y="967"/>
      <point x="208" y="952" type="curve"/>
      <point x="247" y="822" type="line"/>
      <point x="317" y="853"/>
      <point x="450" y="904"/>
      <point x="579" y="904" type="curve" smooth="yes"/>
      <point x="748" y="904"/>
      <point x="823" y="784"/>
      <point x="802" y="615" type="curve"/>
      <point x="733" y="615" type="line" smooth="yes"/>
      <point x="348" y="615"/>
      <point x="93" y="571"/>
      <point x="58" y="285" type="curve" smooth="yes"/>
      <point x="34" y="90"/>
      <point x="177" y="-24"/>
    </contour>
    <contour>
      <point x="434" y="126" type="curve" smooth="yes"/>
      <point x="321" y="126"/>
      <point x="227" y="172"/>
      <point x="241" y="294" type="curve" smooth="yes"/>
      <point x="261" y="446"/>
      <point x="426" y="485"/>
      <point x="635" y="485" type="curve" smooth="yes"/>
      <point x="787" y="485" type="line"/>
      <point x="764" y="302"/>
      <point x="655" y="126"/>
    </contour>
    <contour>
      <point x="990" y="612" type="line"/>
      <point x="1028" y="765"/>
      <point x="1138" y="905"/>
      <point x="1310" y="905" type="curve" smooth="yes"/>
      <point x="1468" y="905"/>
      <point x="1547" y="786"/>
      <point x="1544" y="628" type="curve"/>
      <point x="1543" y="612" type="line"/>
    </contour>
  </outline>
</glyph>
<glyph name="eth" format="1">
  <advance width="1223"/>
  <unicode hex="00F0"/>
  <outline>
    <contour>
      <point x="500" y="-22" type="curve" smooth="yes"/>
      <point x="823" y="-22"/>
      <point x="1036" y="208"/>
      <point x="1087" y="623" type="curve" smooth="yes"/>
      <point x="1123" y="912"/>
      <point x="1032" y="1136"/>
      <point x="880" y="1296" type="curve"/>
      <point x="1079" y="1414" type="line"/>
      <point x="1026" y="1516" type="line"/>
      <point x="793" y="1377" type="line"/>
      <point x="686" y="1464"/>
      <point x="561" y="1523"/>
      <point x="436" y="1552" type="curve"/>
      <point x="350" y="1427" type="line"/>
      <point x="462" y="1399"/>
      <point x="561" y="1351"/>
      <point x="645" y="1290" type="curve"/>
      <point x="445" y="1171" type="line"/>
      <point x="498" y="1069" type="line"/>
      <point x="736" y="1211" type="line"/>
      <point x="884" y="1067"/>
      <point x="931" y="821"/>
      <point x="922" y="726" type="curve"/>
      <point x="886" y="813"/>
      <point x="775" y="905"/>
      <point x="608" y="905" type="curve" smooth="yes"/>
      <point x="326" y="905"/>
      <point x="102" y="721"/>
      <point x="69" y="454" type="curve" smooth="yes"/>
      <point x="36" y="187"/>
      <point x="198" y="-22"/>
    </contour>
    <contour>
      <point x="523" y="138" type="curve" smooth="yes"/>
      <point x="352" y="138"/>
      <point x="236" y="257"/>
      <point x="260" y="452" type="curve" smooth="yes"/>
      <point x="283" y="640"/>
      <point x="420" y="752"/>
      <point x="594" y="752" type="curve" smooth="yes"/>
      <point x="754" y="752"/>
      <point x="888" y="642"/>
      <point x="867" y="475" type="curve" smooth="yes"/>
      <point x="842" y="274"/>
      <point x="710" y="138"/>
    </contour>
  </outline>
</glyph>
<glyph name="divide" format="1">
  <advance width="1286"/>
  <unicode hex="00F7"/>
  <outline>
    <contour>
      <point x="459" y="11" type="line"/>
      <point x="696" y="11" type="line"/>
      <point x="723" y="237" type="line"/>
      <point x="486" y="237" type="line"/>
    </contour>
    <contour>
      <point x="148" y="476" type="line"/>
      <point x="1113" y="476" type="line"/>
      <point x="1132" y="632" type="line"/>
      <point x="167" y="632" type="line"/>
    </contour>
    <contour>
      <point x="563" y="865" type="line"/>
      <point x="800" y="865" type="line"/>
      <point x="827" y="1090" type="line"/>
      <point x="590" y="1090" type="line"/>
    </contour>
  </outline>
</glyph>
<glyph name="oslash" format="1">
  <advance width="1254"/>
  <unicode hex="00F8"/>
  <outline>
    <contour>
      <point x="260" y="-214" type="line"/>
      <point x="1068" y="1189" type="line"/>
      <point x="985" y="1227" type="line"/>
      <point x="177" y="-176" type="line"/>
    </contour>
    <component base="o"/>
  </outline>
</glyph>
<glyph name="thorn" format="1">
  <advance width="1236"/>
  <unicode hex="00FE"/>
  <outline>
    <contour>
      <point x="39" y="-419" type="line"/>
      <point x="222" y="-419" type="line"/>
      <point x="290" y="138" type="line"/>
      <point x="343" y="31"/>
      <point x="466" y="-22"/>
      <point x="599" y="-22" type="curve" smooth="yes"/>
      <point x="912" y="-22"/>
      <point x="1101" y="228"/>
      <point x="1137" y="523" type="curve" smooth="yes"/>
      <point x="1173" y="819"/>
      <point x="1045" y="1051"/>
      <point x="731" y="1051" type="curve" smooth="yes"/>
      <point x="591" y="1051"/>
      <point x="457" y="987"/>
      <point x="382" y="879" type="curve"/>
      <point x="452" y="1458" type="line"/>
      <point x="270" y="1458" type="line"/>
    </contour>
    <contour>
      <point x="590" y="126" type="curve" smooth="yes"/>
      <point x="391" y="126"/>
      <point x="307" y="283"/>
      <point x="332" y="498" type="curve" smooth="yes"/>
      <point x="358" y="706"/>
      <point x="459" y="900"/>
      <point x="691" y="900" type="curve" smooth="yes"/>
      <point x="903" y="900"/>
      <point x="967" y="727"/>
      <point x="942" y="519" type="curve" smooth="yes"/>
      <point x="915" y="304"/>
      <point x="796" y="126"/>
    </contour>
  </outline>
</glyph>
<glyph name="Hbar" format="1">
  <advance width="1566"/>
  <unicode hex="0126"/>
  <outline>
    <contour>
      <point x="151" y="1161" type="line"/>
      <point x="1515" y="1161" type="line"/>
      <point x="1528" y="1269" type="line"/>
      <point x="164" y="1269" type="line"/>
    </contour>
    <component base="H"/>
  </outline>
</glyph>
<glyph name="kgreenlandic" format="1">
  <advance width="1082"/>
  <unicode hex="0138"/>
  <outline>
    <contour>
      <point x="107" y="0" type="line"/>
      <point x="292" y="0" type="line"/>
      <point x="348" y="455" type="line"/>
      <point x="775" y="0" type="line"/>
      <point x="1012" y="0" type="line"/>
      <point x="518" y="517" type="line"/>
      <point x="1101" y="1026" type="line"/>
      <point x="857" y="1026" type="line"/>
      <point x="362" y="571" type="line"/>
      <point x="418" y="1026" type="line"/>
      <point x="233" y="1026" type="line"/>
    </contour>
  </outline>
</glyph>
<glyph name="Lslash" format="1">
  <advance width="1131"/>
  <unicode hex="0141"/>
  <outline>
    <contour>
      <point x="20" y="472" type="line"/>
      <point x="708" y="879" type="line"/>
      <point x="727" y="1038" type="line"/>
      <point x="40" y="631" type="line"/>
    </contour>
    <component base="L"/>
  </outline>
</glyph>
<glyph name="lslash" format="1">
  <advance width="503"/>
  <unicode hex="0142"/>
  <outline>
    <contour>
      <point x="64" y="0" type="line"/>
      <point x="250" y="0" type="line"/>
      <point x="351" y="817" type="line"/>
      <point x="517" y="919" type="line"/>
      <point x="537" y="1077" type="line"/>
      <point x="369" y="977" type="line"/>
      <point x="432" y="1483" type="line"/>
      <point x="247" y="1483" type="line"/>
      <point x="170" y="856" type="line"/>
      <point x="3" y="756" type="line"/>
      <point x="-16" y="598" type="line"/>
      <point x="150" y="698" type="line"/>
    </contour>
  </outline>
</glyph>
<glyph name="Eng" format="1">
  <advance width="1570"/>
  <unicode hex="014A"/>
  <outline>
    <contour>
      <point x="1507" y="1456" type="line"/>
      <point x="1321" y="1456" type="line"/>
      <point x="1183" y="327" type="line"/>
      <point x="1095" y="488" type="line"/>
      <point x="523" y="1456" type="line"/>
      <point x="316" y="1456" type="line"/>
      <point x="138" y="0" type="line"/>
      <point x="322" y="0" type="line"/>
      <point x="469" y="1200" type="line"/>
      <point x="551" y="1044" type="line"/>
      <point x="1149" y="55" type="line"/>
      <point x="1139" y="-28" type="line" smooth="yes"/>
      <point x="1115" y="-215"/>
      <point x="1004" y="-289"/>
      <point x="826" y="-289" type="curve" smooth="yes"/>
      <point x="734" y="-289"/>
      <point x="621" y="-271"/>
      <point x="487" y="-235" type="curve"/>
      <point x="447" y="-386" type="line"/>
      <point x="585" y="-419"/>
      <point x="705" y="-436"/>
      <point x="808" y="-436" type="curve" smooth="yes"/>
      <point x="1145" y="-436"/>
      <point x="1296" y="-259"/>
      <point x="1335" y="56" type="curve" smooth="yes"/>
    </contour>
  </outline>
</glyph>
<glyph name="eng" format="1">
  <advance width="1235"/>
  <unicode hex="014B"/>
  <outline>
    <contour>
      <point x="521" y="-408" type="curve" smooth="yes"/>
      <point x="871" y="-408"/>
      <point x="1016" y="-210"/>
      <point x="1057" y="130" type="curve" smooth="yes"/>
      <point x="1109" y="559" type="line" smooth="yes"/>
      <point x="1148" y="869"/>
      <point x="1073" y="1051"/>
      <point x="792" y="1051" type="curve" smooth="yes"/>
      <point x="653" y="1051"/>
      <point x="517" y="995"/>
      <point x="428" y="882" type="curve"/>
      <point x="444" y="1026" type="line"/>
      <point x="253" y="1026" type="line" smooth="yes"/>
      <point x="253" y="1026"/>
      <point x="246" y="896"/>
      <point x="228" y="742" type="curve" smooth="yes"/>
      <point x="136" y="0" type="line"/>
      <point x="321" y="0" type="line"/>
      <point x="401" y="643" type="line" smooth="yes"/>
      <point x="415" y="749"/>
      <point x="565" y="900"/>
      <point x="738" y="900" type="curve" smooth="yes"/>
      <point x="933" y="900"/>
      <point x="950" y="769"/>
      <point x="923" y="549" type="curve" smooth="yes"/>
      <point x="868" y="100" type="line" smooth="yes"/>
      <point x="838" y="-145"/>
      <point x="752" y="-269"/>
      <point x="519" y="-269" type="curve" smooth="yes"/>
      <point x="439" y="-269"/>
      <point x="340" y="-254"/>
      <point x="217" y="-223" type="curve"/>
      <point x="181" y="-361" type="line"/>
      <point x="312" y="-393"/>
      <point x="424" y="-408"/>
    </contour>
  </outline>
</glyph>
<glyph name="OE" format="1">
  <advance width="2049"/>
  <unicode hex="0152"/>
  <outline>
    <contour>
      <point x="721" y="-22" type="curve" smooth="yes"/>
      <point x="885" y="-19"/>
      <point x="1006" y="50"/>
      <point x="1052" y="94" type="curve"/>
      <point x="1040" y="0" type="line"/>
      <point x="1881" y="0" type="line"/>
      <point x="1902" y="165" type="line"/>
      <point x="1253" y="165" type="line"/>
      <point x="1314" y="663" type="line"/>
      <point x="1894" y="663" type="line"/>
      <point x="1914" y="829" type="line"/>
      <point x="1334" y="829" type="line"/>
      <point x="1391" y="1291" type="line"/>
      <point x="2010" y="1291" type="line"/>
      <point x="2030" y="1456" type="line"/>
      <point x="1219" y="1456" type="line"/>
      <point x="1210" y="1381" type="line"/>
      <point x="1171" y="1423"/>
      <point x="1067" y="1485"/>
      <point x="889" y="1483" type="curve" smooth="yes"/>
      <point x="478" y="1480"/>
      <point x="163" y="1174"/>
      <point x="107" y="729" type="curve" smooth="yes"/>
      <point x="49" y="253"/>
      <point x="287" y="-33"/>
    </contour>
    <contour>
      <point x="745" y="132" type="curve" smooth="yes"/>
      <point x="406" y="130"/>
      <point x="270" y="383"/>
      <point x="311" y="725" type="curve" smooth="yes"/>
      <point x="353" y="1064"/>
      <point x="565" y="1311"/>
      <point x="875" y="1319" type="curve" smooth="yes"/>
      <point x="1042" y="1326"/>
      <point x="1140" y="1269"/>
      <point x="1189" y="1212" type="curve"/>
      <point x="1071" y="254" type="line"/>
      <point x="1024" y="203"/>
      <point x="921" y="134"/>
    </contour>
  </outline>
</glyph>
<glyph name="oe" format="1">
  <advance width="1978"/>
  <unicode hex="0153"/>
  <outline>
    <contour>
      <point x="554" y="-22" type="curve" smooth="yes"/>
      <point x="731" y="-22"/>
      <point x="901" y="66"/>
      <point x="983" y="208" type="curve"/>
      <point x="1035" y="67"/>
      <point x="1195" y="-22"/>
      <point x="1370" y="-22" type="curve" smooth="yes"/>
      <point x="1611" y="-22"/>
      <point x="1759" y="85"/>
      <point x="1782" y="101" type="curve"/>
      <point x="1742" y="235" type="line"/>
      <point x="1721" y="221"/>
      <point x="1588" y="128"/>
      <point x="1407" y="128" type="curve" smooth="yes"/>
      <point x="1206" y="128"/>
      <point x="1094" y="253"/>
      <point x="1105" y="440" type="curve"/>
      <point x="1105" y="443"/>
      <point x="1108" y="469"/>
      <point x="1107" y="471" type="curve"/>
      <point x="1858" y="471" type="line"/>
      <point x="1865" y="524" type="line" smooth="yes"/>
      <point x="1903" y="840"/>
      <point x="1766" y="1054"/>
      <point x="1478" y="1054" type="curve" smooth="yes"/>
      <point x="1287" y="1054"/>
      <point x="1148" y="967"/>
      <point x="1061" y="823" type="curve"/>
      <point x="1003" y="961"/>
      <point x="881" y="1052"/>
      <point x="687" y="1052" type="curve" smooth="yes"/>
      <point x="349" y="1052"/>
      <point x="131" y="817"/>
      <point x="94" y="509" type="curve" smooth="yes"/>
      <point x="56" y="203"/>
      <point x="222" y="-22"/>
    </contour>
    <contour>
      <point x="576" y="128" type="curve" smooth="yes"/>
      <point x="351" y="128"/>
      <point x="262" y="294"/>
      <point x="287" y="506" type="curve" smooth="yes"/>
      <point x="316" y="733"/>
      <point x="455" y="902"/>
      <point x="667" y="902" type="curve" smooth="yes"/>
      <point x="879" y="902"/>
      <point x="958" y="736"/>
      <point x="930" y="511" type="curve" smooth="yes"/>
      <point x="904" y="300"/>
      <point x="783" y="128"/>
    </contour>
    <contour>
      <point x="1127" y="615" type="line"/>
      <point x="1160" y="771"/>
      <point x="1293" y="902"/>
      <point x="1460" y="902" type="curve" smooth="yes"/>
      <point x="1616" y="902"/>
      <point x="1708" y="791"/>
      <point x="1707" y="639" type="curve"/>
      <point x="1706" y="636"/>
      <point x="1704" y="619"/>
      <point x="1704" y="615" type="curve"/>
    </contour>
  </outline>
</glyph>
<glyph name="florin" format="1">
  <advance width="1070"/>
  <unicode hex="0192"/>
  <outline>
    <contour>
      <point x="93" y="-299" type="curve" smooth="yes"/>
      <point x="329" y="-299"/>
      <point x="406" y="-163"/>
      <point x="480" y="86" type="curve" smooth="yes"/>
      <point x="700" y="815" type="line"/>
      <point x="912" y="815" type="line"/>
      <point x="950" y="935" type="line"/>
      <point x="736" y="935" type="line"/>
      <point x="808" y="1157" type="line" smooth="yes"/>
      <point x="847" y="1278"/>
      <point x="904" y="1333"/>
      <point x="1009" y="1333" type="curve" smooth="yes"/>
      <point x="1048" y="1333"/>
      <point x="1089" y="1324"/>
      <point x="1123" y="1313" type="curve"/>
      <point x="1155" y="1435" type="line"/>
      <point x="1155" y="1435"/>
      <point x="1088" y="1469"/>
      <point x="999" y="1469" type="curve" smooth="yes"/>
      <point x="757" y="1469"/>
      <point x="672" y="1294"/>
      <point x="622" y="1126" type="curve" smooth="yes"/>
      <point x="563" y="935" type="line"/>
      <point x="412" y="935" type="line"/>
      <point x="375" y="815" type="line"/>
      <point x="528" y="815" type="line"/>
      <point x="291" y="34" type="line" smooth="yes"/>
      <point x="247" y="-114"/>
      <point x="175" y="-167"/>
      <point x="88" y="-167" type="curve" smooth="yes"/>
      <point x="65" y="-167"/>
      <point x="37" y="-162"/>
      <point x="19" y="-157" type="curve"/>
      <point x="-10" y="-282" type="line"/>
      <point x="31" y="-294"/>
      <point x="71" y="-299"/>
    </contour>
  </outline>
</glyph>
<glyph name="dotlessj" format="1">
  <advance width="503"/>
  <unicode hex="0237"/>
  <outline>
    <contour>
      <point x="348" y="1026" type="move" name="top"/>
    </contour>
    <contour>
      <point x="-68" y="-423" type="curve" smooth="yes"/>
      <point x="224" y="-423"/>
      <point x="290" y="-127"/>
      <point x="319" y="104" type="curve" smooth="yes"/>
      <point x="432" y="1026" type="line"/>
      <point x="258" y="1026" type="line"/>
      <point x="137" y="36" type="line" smooth="yes"/>
      <point x="111" y="-176"/>
      <point x="36" y="-272"/>
      <point x="-89" y="-272" type="curve" smooth="yes"/>
      <point x="-109" y="-272"/>
      <point x="-136" y="-269"/>
      <point x="-175" y="-260" type="curve"/>
      <point x="-193" y="-411" type="line"/>
      <point x="-147" y="-420"/>
      <point x="-106" y="-423"/>
    </contour>
  </outline>
</glyph>
<glyph name="caron" format="1">
  <advance width="699"/>
  <unicode hex="02C7"/>
  <outline>
    <contour>
      <point x="311" y="1026" type="move" name="_top"/>
    </contour>
    <contour>
      <point x="246" y="1154" type="line"/>
      <point x="410" y="1154" type="line"/>
      <point x="700" y="1505" type="line"/>
      <point x="532" y="1505" type="line"/>
      <point x="340" y="1275" type="line"/>
      <point x="206" y="1505" type="line"/>
      <point x="43" y="1505" type="line"/>
    </contour>
  </outline>
</glyph>
<glyph name="breve" format="1">
  <advance width="615"/>
  <unicode hex="02D8"/>
  <outline>
    <contour>
      <point x="280" y="1026" type="move" name="_top"/>
    </contour>
    <contour>
      <point x="294" y="1180" type="curve" smooth="yes"/>
      <point x="459" y="1180"/>
      <point x="565" y="1261"/>
      <point x="600" y="1440" type="curve"/>
      <point x="471" y="1440" type="line"/>
      <point x="447" y="1345"/>
      <point x="393" y="1312"/>
      <point x="310" y="1312" type="curve" smooth="yes"/>
      <point x="226" y="1312"/>
      <point x="173" y="1341"/>
      <point x="180" y="1440" type="curve"/>
      <point x="48" y="1440" type="line"/>
      <point x="38" y="1259"/>
      <point x="123" y="1180"/>
    </contour>
  </outline>
</glyph>
<glyph name="ring" format="1">
  <advance width="628"/>
  <unicode hex="02DA"/>
  <outline>
    <contour>
      <point x="279" y="1026" type="move" name="_top"/>
    </contour>
    <contour>
      <point x="334" y="1476" type="move" name="top"/>
    </contour>
    <contour>
      <point x="300" y="1212" type="curve" smooth="yes"/>
      <point x="242" y="1212"/>
      <point x="201" y="1261"/>
      <point x="208" y="1322" type="curve" smooth="yes"/>
      <point x="215" y="1383"/>
      <point x="268" y="1432"/>
      <point x="327" y="1432" type="curve" smooth="yes"/>
      <point x="386" y="1432"/>
      <point x="427" y="1383"/>
      <point x="420" y="1322" type="curve" smooth="yes"/>
      <point x="413" y="1261"/>
      <point x="360" y="1212"/>
    </contour>
    <contour>
      <point x="291" y="1127" type="curve" smooth="yes"/>
      <point x="402" y="1127"/>
      <point x="502" y="1210"/>
      <point x="516" y="1322" type="curve" smooth="yes"/>
      <point x="529" y="1435"/>
      <point x="451" y="1517"/>
      <point x="339" y="1517" type="curve" smooth="yes"/>
      <point x="227" y="1517"/>
      <point x="127" y="1435"/>
      <point x="114" y="1322" type="curve" smooth="yes"/>
      <point x="100" y="1210"/>
      <point x="179" y="1127"/>
    </contour>
  </outline>
</glyph>
<glyph name="ogonek" format="1">
  <advance width="508"/>
  <unicode hex="02DB"/>
  <outline>
    <contour>
      <point x="329" y="0" type="move" name="_ogonek"/>
    </contour>
    <contour>
      <point x="253" y="-424" type="curve" smooth="yes"/>
      <point x="309" y="-424"/>
      <point x="372" y="-414"/>
      <point x="431" y="-396" type="curve"/>
      <point x="445" y="-284" type="line"/>
      <point x="406" y="-294"/>
      <point x="352" y="-307"/>
      <point x="308" y="-307" type="curve" smooth="yes"/>
      <point x="231" y="-307"/>
      <point x="198" y="-274"/>
      <point x="205" y="-221" type="curve" smooth="yes"/>
      <point x="213" y="-153"/>
      <point x="296" y="-51"/>
      <point x="396" y="10" type="curve"/>
      <point x="291" y="15" type="line"/>
      <point x="187" y="-37"/>
      <point x="56" y="-135"/>
      <point x="41" y="-250" type="curve" smooth="yes"/>
      <point x="27" y="-366"/>
      <point x="127" y="-424"/>
    </contour>
  </outline>
</glyph>
<glyph name="tilde" format="1">
  <advance width="667"/>
  <unicode hex="02DC"/>
  <outline>
    <contour>
      <point x="298" y="1026" type="move" name="_top"/>
    </contour>
    <contour>
      <point x="468" y="1175" type="curve" smooth="yes"/>
      <point x="583" y="1172"/>
      <point x="657" y="1265"/>
      <point x="675" y="1414" type="curve"/>
      <point x="553" y="1414" type="line"/>
      <point x="541" y="1339"/>
      <point x="521" y="1314"/>
      <point x="479" y="1315" type="curve" smooth="yes"/>
      <point x="412" y="1318"/>
      <point x="305" y="1416"/>
      <point x="202" y="1416" type="curve" smooth="yes"/>
      <point x="90" y="1416"/>
      <point x="10" y="1323"/>
      <point x="-7" y="1183" type="curve"/>
      <point x="111" y="1183" type="line"/>
      <point x="125" y="1246"/>
      <point x="153" y="1276"/>
      <point x="193" y="1276" type="curve" smooth="yes"/>
      <point x="262" y="1276"/>
      <point x="379" y="1177"/>
    </contour>
  </outline>
</glyph>
<glyph name="uni030F" format="1">
  <advance width="969"/>
  <unicode hex="030F"/>
  <outline>
    <contour>
      <point x="548" y="1026" type="move" name="_top"/>
    </contour>
    <contour>
      <point x="352" y="1174" type="line"/>
      <point x="476" y="1174" type="line"/>
      <point x="272" y="1567" type="line"/>
      <point x="92" y="1567" type="line"/>
    </contour>
    <contour>
      <point x="694" y="1174" type="line"/>
      <point x="816" y="1174" type="line"/>
      <point x="639" y="1567" type="line"/>
      <point x="459" y="1567" type="line"/>
    </contour>
  </outline>
</glyph>
<glyph name="uni0326" format="1">
  <advance width="540"/>
  <unicode hex="0326"/>
  <outline>
    <contour>
      <point x="374" y="0" type="move" name="_bot"/>
    </contour>
    <contour>
      <point x="82" y="-607" type="line"/>
      <point x="232" y="-607" type="line"/>
      <point x="458" y="-134" type="line"/>
      <point x="249" y="-134" type="line"/>
    </contour>
  </outline>
</glyph>
<glyph name="Omega" format="1">
  <advance width="1603"/>
  <unicode hex="03A9"/>
  <outline>
    <contour>
      <point x="11" y="0" type="line"/>
      <point x="559" y="0" type="line"/>
      <point x="576" y="133" type="line"/>
      <point x="388" y="266"/>
      <point x="280" y="519"/>
      <point x="312" y="781" type="curve" smooth="yes"/>
      <point x="351" y="1096"/>
      <point x="578" y="1308"/>
      <point x="868" y="1308" type="curve" smooth="yes"/>
      <point x="1186" y="1308"/>
      <point x="1317" y="1063"/>
      <point x="1282" y="776" type="curve" smooth="yes"/>
      <point x="1250" y="514"/>
      <point x="1072" y="269"/>
      <point x="855" y="133" type="curve"/>
      <point x="839" y="0" type="line"/>
      <point x="1371" y="0" type="line"/>
      <point x="1403" y="144" type="line"/>
      <point x="1090" y="144" type="line"/>
      <point x="1267" y="278"/>
      <point x="1449" y="519"/>
      <point x="1483" y="793" type="curve" smooth="yes"/>
      <point x="1530" y="1177"/>
      <point x="1306" y="1470"/>
      <point x="892" y="1470" type="curve" smooth="yes"/>
      <point x="494" y="1470"/>
      <point x="164" y="1208"/>
      <point x="114" y="798" type="curve" smooth="yes"/>
      <point x="81" y="531"/>
      <point x="180" y="285"/>
      <point x="341" y="144" type="curve"/>
      <point x="8" y="144" type="line"/>
    </contour>
  </outline>
</glyph>
<glyph name="mu" format="1">
  <advance width="1235"/>
  <unicode hex="03BC"/>
  <outline>
    <contour>
      <point x="263" y="-276" type="line"/>
      <point x="301" y="30" type="line"/>
      <point x="352" y="-5"/>
      <point x="420" y="-23"/>
      <point x="506" y="-23" type="curve" smooth="yes"/>
      <point x="677" y="-23"/>
      <point x="789" y="76"/>
      <point x="848" y="165" type="curve"/>
      <point x="833" y="0" type="line"/>
      <point x="1020" y="0" type="line"/>
      <point x="1022" y="39"/>
      <point x="1032" y="175"/>
      <point x="1042" y="254" type="curve" smooth="yes"/>
      <point x="1137" y="1026" type="line"/>
      <point x="953" y="1026" type="line"/>
      <point x="876" y="403" type="line" smooth="yes"/>
      <point x="857" y="246"/>
      <point x="741" y="127"/>
      <point x="555" y="127" type="curve" smooth="yes"/>
      <point x="399" y="127"/>
      <point x="324" y="214"/>
      <point x="345" y="392" type="curve" smooth="yes"/>
      <point x="423" y="1026" type="line"/>
      <point x="239" y="1026" type="line"/>
      <point x="80" y="-276" type="line"/>
    </contour>
  </outline>
</glyph>
<glyph name="pi" format="1">
  <advance width="1288"/>
  <unicode hex="03C0"/>
  <outline>
    <contour>
      <point x="118" y="0" type="curve"/>
      <point x="308" y="0" type="line"/>
      <point x="436" y="160"/>
      <point x="542" y="790"/>
      <point x="558" y="885" type="curve"/>
      <point x="875" y="885" type="line"/>
      <point x="799" y="267" type="line" smooth="yes"/>
      <point x="774" y="61"/>
      <point x="848" y="-13"/>
      <point x="992" y="-13" type="curve" smooth="yes"/>
      <point x="1028" y="-13"/>
      <point x="1076" y="-8"/>
      <point x="1121" y="0" type="curve"/>
      <point x="1137" y="145" type="line"/>
      <point x="1103" y="138"/>
      <point x="1078" y="134"/>
      <point x="1059" y="134" type="curve" smooth="yes"/>
      <point x="961" y="134"/>
      <point x="966" y="215"/>
      <point x="974" y="284" type="curve" smooth="yes"/>
      <point x="1048" y="885" type="line"/>
      <point x="1245" y="885" type="line"/>
      <point x="1262" y="1026" type="line"/>
      <point x="426" y="1026" type="line" smooth="yes"/>
      <point x="287" y="1026"/>
      <point x="192" y="1004"/>
      <point x="129" y="963" type="curve"/>
      <point x="129" y="824" type="line"/>
      <point x="194" y="862"/>
      <point x="280" y="883"/>
      <point x="387" y="885" type="curve"/>
      <point x="330" y="543"/>
      <point x="263" y="182"/>
    </contour>
  </outline>
</glyph>
<glyph name="emdash" format="1">
  <advance width="2171"/>
  <unicode hex="2014"/>
  <outline>
    <contour>
      <point x="7" y="480" type="line"/>
      <point x="2140" y="480" type="line"/>
      <point x="2158" y="634" type="line"/>
      <point x="25" y="634" type="line"/>
    </contour>
  </outline>
</glyph>
<glyph name="quoteleft" format="1">
  <advance width="514"/>
  <unicode hex="2018"/>
  <outline>
    <contour>
      <point x="234" y="882" type="line"/>
      <point x="361" y="992" type="line"/>
      <point x="368" y="1456" type="line"/>
      <point x="140" y="1346" type="line"/>
    </contour>
  </outline>
</glyph>
<glyph name="quotesinglbase" format="1">
  <advance width="587"/>
  <unicode hex="201A"/>
  <outline>
    <contour>
      <point x="121" y="-327" type="line"/>
      <point x="273" y="-327" type="line"/>
      <point x="469" y="216" type="line"/>
      <point x="271" y="216" type="line"/>
    </contour>
  </outline>
</glyph>
<glyph name="quotedblleft" format="1">
  <advance width="1024"/>
  <unicode hex="201C"/>
  <outline>
    <contour>
      <point x="130" y="882" type="line"/>
      <point x="341" y="882" type="line"/>
      <point x="506" y="1456" type="line"/>
      <point x="356" y="1456" type="line"/>
    </contour>
    <contour>
      <point x="523" y="882" type="line"/>
      <point x="729" y="882" type="line"/>
      <point x="893" y="1456" type="line"/>
      <point x="743" y="1456" type="line"/>
    </contour>
  </outline>
</glyph>
<glyph name="quotedblright" format="1">
  <advance width="1024"/>
  <unicode hex="201D"/>
  <outline>
    <contour>
      <point x="161" y="882" type="line"/>
      <point x="311" y="882" type="line"/>
      <point x="529" y="1456" type="line"/>
      <point x="323" y="1456" type="line"/>
    </contour>
    <contour>
      <point x="525" y="882" type="line"/>
      <point x="677" y="882" type="line"/>
      <point x="894" y="1456" type="line"/>
      <point x="689" y="1456" type="line"/>
    </contour>
  </outline>
</glyph>
<glyph name="quotedblbase" format="1">
  <advance width="1024"/>
  <unicode hex="201E"/>
  <outline>
    <contour>
      <point x="201" y="-258" type="line"/>
      <point x="355" y="-258" type="line"/>
      <point x="542" y="216" type="line"/>
      <point x="339" y="216" type="line"/>
    </contour>
    <contour>
      <point x="444" y="-258" type="line"/>
      <point x="596" y="-258" type="line"/>
      <point x="785" y="216" type="line"/>
      <point x="582" y="216" type="line"/>
    </contour>
  </outline>
</glyph>
<glyph name="daggerdbl" format="1">
  <advance width="1086"/>
  <unicode hex="2021"/>
  <outline>
    <contour>
      <point x="164" y="1034" type="line"/>
      <point x="150" y="919" type="line"/>
      <point x="485" y="919" type="line"/>
      <point x="435" y="510" type="line"/>
      <point x="96" y="510" type="line"/>
      <point x="82" y="399" type="line"/>
      <point x="421" y="399" type="line"/>
      <point x="373" y="0" type="line"/>
      <point x="537" y="0" type="line"/>
      <point x="585" y="399" type="line"/>
      <point x="913" y="399" type="line"/>
      <point x="927" y="510" type="line"/>
      <point x="599" y="510" type="line"/>
      <point x="649" y="919" type="line"/>
      <point x="984" y="919" type="line"/>
      <point x="998" y="1034" type="line"/>
      <point x="664" y="1034" type="line"/>
      <point x="716" y="1459" type="line"/>
      <point x="552" y="1459" type="line"/>
      <point x="500" y="1034" type="line"/>
    </contour>
  </outline>
</glyph>
<glyph name="bullet" format="1">
  <advance width="989"/>
  <unicode hex="2022"/>
  <outline>
    <contour>
      <point x="462" y="378" type="curve" smooth="yes"/>
      <point x="648" y="378"/>
      <point x="809" y="518"/>
      <point x="830" y="691" type="curve" smooth="yes"/>
      <point x="851" y="861"/>
      <point x="728" y="1010"/>
      <point x="540" y="1010" type="curve" smooth="yes"/>
      <point x="356" y="1010"/>
      <point x="196" y="864"/>
      <point x="175" y="691" type="curve" smooth="yes"/>
      <point x="155" y="522"/>
      <point x="271" y="378"/>
    </contour>
  </outline>
</glyph>
<glyph name="perthousand" format="1">
  <advance width="2701"/>
  <unicode hex="2030"/>
  <outline>
    <contour>
      <point x="2171" y="104" type="curve" smooth="yes"/>
      <point x="2040" y="104"/>
      <point x="1996" y="200"/>
      <point x="2017" y="371" type="curve" smooth="yes"/>
      <point x="2037" y="537"/>
      <point x="2103" y="643"/>
      <point x="2238" y="643" type="curve" smooth="yes"/>
      <point x="2370" y="643"/>
      <point x="2410" y="541"/>
      <point x="2389" y="372" type="curve" smooth="yes"/>
      <point x="2369" y="204"/>
      <point x="2300" y="104"/>
    </contour>
    <contour>
      <point x="2156" y="-19" type="curve" smooth="yes"/>
      <point x="2375" y="-19"/>
      <point x="2521" y="143"/>
      <point x="2549" y="372" type="curve" smooth="yes"/>
      <point x="2577" y="600"/>
      <point x="2475" y="765"/>
      <point x="2253" y="765" type="curve" smooth="yes"/>
      <point x="2031" y="765"/>
      <point x="1885" y="598"/>
      <point x="1857" y="371" type="curve" smooth="yes"/>
      <point x="1829" y="142"/>
      <point x="1934" y="-19"/>
    </contour>
    <component base="percent"/>
  </outline>
</glyph>
<glyph name="guilsinglleft" format="1">
  <advance width="685"/>
  <unicode hex="2039"/>
  <outline>
    <contour>
      <point x="363" y="168" type="line"/>
      <point x="524" y="168" type="line"/>
      <point x="329" y="541" type="line"/>
      <point x="623" y="916" type="line"/>
      <point x="460" y="916" type="line"/>
      <point x="138" y="541" type="line"/>
    </contour>
  </outline>
</glyph>
<glyph name="guilsinglright" format="1">
  <advance width="685"/>
  <unicode hex="203A"/>
  <outline>
    <contour>
      <point x="87" y="167" type="line"/>
      <point x="250" y="167" type="line"/>
      <point x="571" y="542" type="line"/>
      <point x="346" y="915" type="line"/>
      <point x="186" y="915" type="line"/>
      <point x="380" y="543" type="line"/>
    </contour>
  </outline>
</glyph>
<glyph name="foursuperior" format="1">
  <advance width="1167"/>
  <unicode hex="2074"/>
  <outline>
    <contour>
      <point x="621" y="658" type="line"/>
      <point x="746" y="658" type="line"/>
      <point x="769" y="846" type="line"/>
      <point x="876" y="846" type="line"/>
      <point x="890" y="952" type="line"/>
      <point x="783" y="952" type="line"/>
      <point x="845" y="1456" type="line"/>
      <point x="707" y="1456" type="line"/>
      <point x="275" y="938" type="line"/>
      <point x="264" y="846" type="line"/>
      <point x="644" y="846" type="line"/>
    </contour>
    <contour>
      <point x="416" y="952" type="line"/>
      <point x="697" y="1291" type="line"/>
      <point x="655" y="952" type="line"/>
    </contour>
  </outline>
</glyph>
<glyph name="Euro" format="1">
  <advance width="1480"/>
  <unicode hex="20AC"/>
  <outline>
    <contour>
      <point x="5" y="523" type="line"/>
      <point x="880" y="523" type="line"/>
      <point x="900" y="627" type="line"/>
      <point x="301" y="627" type="line"/>
      <point x="324" y="838" type="line"/>
      <point x="954" y="838" type="line"/>
      <point x="975" y="948" type="line"/>
      <point x="61" y="948" type="line"/>
      <point x="42" y="838" type="line"/>
      <point x="289" y="838" type="line"/>
      <point x="267" y="627" type="line"/>
      <point x="23" y="627" type="line"/>
    </contour>
    <component base="C" xOffset="92"/>
  </outline>
</glyph>
<glyph name="estimated" format="1">
  <advance width="1206"/>
  <unicode hex="212E"/>
  <outline>
    <contour>
      <point x="560" y="114" type="curve" smooth="yes"/>
      <point x="702" y="114"/>
      <point x="859" y="158"/>
      <point x="1006" y="247" type="curve"/>
      <point x="985" y="299" type="line"/>
      <point x="850" y="218"/>
      <point x="719" y="176"/>
      <point x="617" y="176" type="curve" smooth="yes"/>
      <point x="417" y="176"/>
      <point x="273" y="323"/>
      <point x="316" y="655" type="curve"/>
      <point x="1059" y="655" type="line"/>
      <point x="1065" y="671"/>
      <point x="1068" y="689"/>
      <point x="1069" y="700" type="curve" smooth="yes"/>
      <point x="1115" y="1075"/>
      <point x="913" y="1199"/>
      <point x="678" y="1199" type="curve" smooth="yes"/>
      <point x="429" y="1199"/>
      <point x="154" y="1050"/>
      <point x="105" y="652" type="curve" smooth="yes"/>
      <point x="61" y="294"/>
      <point x="275" y="114"/>
    </contour>
    <contour>
      <point x="323" y="713" type="line"/>
      <point x="365" y="1036"/>
      <point x="532" y="1141"/>
      <point x="668" y="1141" type="curve" smooth="yes"/>
      <point x="808" y="1141"/>
      <point x="933" y="1037"/>
      <point x="893" y="713" type="curve"/>
    </contour>
  </outline>
</glyph>
<glyph name="partialdiff" format="1">
  <advance width="1164"/>
  <unicode hex="2202"/>
  <outline>
    <contour>
      <point x="394" y="-24" type="curve" smooth="yes"/>
      <point x="784" y="-24"/>
      <point x="1029" y="415"/>
      <point x="1082" y="845" type="curve" smooth="yes"/>
      <point x="1140" y="1313"/>
      <point x="978" y="1524"/>
      <point x="675" y="1524" type="curve" smooth="yes"/>
      <point x="558" y="1524"/>
      <point x="439" y="1485"/>
      <point x="350" y="1429" type="curve"/>
      <point x="345" y="1287" type="line"/>
      <point x="419" y="1332"/>
      <point x="528" y="1373"/>
      <point x="636" y="1373" type="curve" smooth="yes"/>
      <point x="830" y="1373"/>
      <point x="931" y="1204"/>
      <point x="900" y="926" type="curve"/>
      <point x="899" y="915"/>
      <point x="890" y="844"/>
      <point x="889" y="834" type="curve"/>
      <point x="864" y="904"/>
      <point x="778" y="1002"/>
      <point x="613" y="1002" type="curve" smooth="yes"/>
      <point x="332" y="1002"/>
      <point x="73" y="748"/>
      <point x="34" y="422" type="curve" smooth="yes"/>
      <point x="2" y="171"/>
      <point x="120" y="-24"/>
    </contour>
    <contour>
      <point x="413" y="128" type="curve" smooth="yes"/>
      <point x="274" y="128"/>
      <point x="201" y="243"/>
      <point x="222" y="418" type="curve" smooth="yes"/>
      <point x="251" y="652"/>
      <point x="423" y="853"/>
      <point x="614" y="853" type="curve" smooth="yes"/>
      <point x="741" y="853"/>
      <point x="824" y="757"/>
      <point x="849" y="652" type="curve"/>
      <point x="772" y="336"/>
      <point x="626" y="128"/>
    </contour>
  </outline>
</glyph>
<glyph name="increment" format="1">
  <advance width="1309"/>
  <unicode hex="2206"/>
  <outline>
    <contour>
      <point x="-33" y="0" type="line"/>
      <point x="1160" y="0" type="line"/>
      <point x="1170" y="84" type="line"/>
      <point x="827" y="1455" type="line"/>
      <point x="673" y="1455" type="line"/>
      <point x="-23" y="84" type="line"/>
    </contour>
    <contour>
      <point x="182" y="142" type="line"/>
      <point x="720" y="1237" type="line"/>
      <point x="975" y="142" type="line"/>
    </contour>
  </outline>
</glyph>
<glyph name="product" format="1">
  <advance width="1559"/>
  <unicode hex="220F"/>
  <outline>
    <contour>
      <point x="180" y="-89" type="line"/>
      <point x="372" y="-89" type="line"/>
      <point x="542" y="1300" type="line"/>
      <point x="1159" y="1300" type="line"/>
      <point x="989" y="-89" type="line"/>
      <point x="1184" y="-89" type="line"/>
      <point x="1354" y="1300" type="line"/>
      <point x="1502" y="1300" type="line"/>
      <point x="1522" y="1456" type="line"/>
      <point x="206" y="1456" type="line"/>
      <point x="186" y="1300" type="line"/>
      <point x="351" y="1300" type="line"/>
    </contour>
  </outline>
</glyph>
<glyph name="summation" format="1">
  <advance width="1193"/>
  <unicode hex="2211"/>
  <outline>
    <contour>
      <point x="36" y="-110" type="line"/>
      <point x="1000" y="-110" type="line"/>
      <point x="1018" y="40" type="line"/>
      <point x="278" y="40" type="line"/>
      <point x="827" y="688" type="line"/>
      <point x="459" y="1308" type="line"/>
      <point x="1131" y="1308" type="line"/>
      <point x="1149" y="1455" type="line"/>
      <point x="248" y="1455" type="line"/>
      <point x="236" y="1358" type="line"/>
      <point x="630" y="681" type="line"/>
      <point x="47" y="-14" type="line"/>
    </contour>
  </outline>
</glyph>
<glyph name="radical" format="1">
  <advance width="1314"/>
  <unicode hex="221A"/>
  <outline>
    <contour>
      <point x="564" y="-150" type="line"/>
      <point x="717" y="-150" type="line"/>
      <point x="1393" y="1585" type="line"/>
      <point x="1238" y="1585" type="line"/>
      <point x="659" y="98" type="line"/>
      <point x="478" y="830" type="line"/>
      <point x="158" y="777" type="line"/>
      <point x="168" y="648" type="line"/>
      <point x="168" y="648"/>
      <point x="340" y="676"/>
      <point x="341" y="676" type="curve"/>
    </contour>
  </outline>
</glyph>
<glyph name="infinity" format="1">
  <advance width="1728"/>
  <unicode hex="221E"/>
  <outline>
    <contour>
      <point x="417" y="235" type="curve" smooth="yes"/>
      <point x="578" y="235"/>
      <point x="717" y="338"/>
      <point x="851" y="488" type="curve"/>
      <point x="962" y="317"/>
      <point x="1072" y="235"/>
      <point x="1221" y="235" type="curve" smooth="yes"/>
      <point x="1415" y="235"/>
      <point x="1602" y="383"/>
      <point x="1628" y="597" type="curve" smooth="yes"/>
      <point x="1653" y="804"/>
      <point x="1531" y="952"/>
      <point x="1311" y="952" type="curve" smooth="yes"/>
      <point x="1142" y="952"/>
      <point x="1008" y="849"/>
      <point x="878" y="699" type="curve"/>
      <point x="780" y="853"/>
      <point x="665" y="952"/>
      <point x="501" y="952" type="curve" smooth="yes"/>
      <point x="311" y="952"/>
      <point x="122" y="803"/>
      <point x="99" y="616" type="curve" smooth="yes"/>
      <point x="73" y="410"/>
      <point x="200" y="235"/>
    </contour>
    <contour>
      <point x="439" y="363" type="curve" smooth="yes"/>
      <point x="297" y="363"/>
      <point x="222" y="477"/>
      <point x="236" y="595" type="curve" smooth="yes"/>
      <point x="251" y="720"/>
      <point x="344" y="826"/>
      <point x="486" y="826" type="curve" smooth="yes"/>
      <point x="625" y="826"/>
      <point x="719" y="724"/>
      <point x="794" y="591" type="curve"/>
      <point x="687" y="466"/>
      <point x="568" y="363"/>
    </contour>
    <contour>
      <point x="1239" y="363" type="curve" smooth="yes"/>
      <point x="1117" y="363"/>
      <point x="1036" y="443"/>
      <point x="936" y="595" type="curve"/>
      <point x="1032" y="714"/>
      <point x="1161" y="826"/>
      <point x="1291" y="826" type="curve" smooth="yes"/>
      <point x="1421" y="826"/>
      <point x="1499" y="732"/>
      <point x="1485" y="621" type="curve" smooth="yes"/>
      <point x="1467" y="476"/>
      <point x="1387" y="363"/>
    </contour>
  </outline>
</glyph>
<glyph name="integral" format="1">
  <advance width="749"/>
  <unicode hex="222B"/>
  <outline>
    <contour>
      <point x="66" y="-305" type="curve" smooth="yes"/>
      <point x="294" y="-305"/>
      <point x="390" y="-145"/>
      <point x="417" y="73" type="curve" smooth="yes"/>
      <point x="556" y="1212" type="line" smooth="yes"/>
      <point x="573" y="1345"/>
      <point x="602" y="1416"/>
      <point x="726" y="1416" type="curve" smooth="yes"/>
      <point x="783" y="1416"/>
      <point x="834" y="1399"/>
      <point x="834" y="1399" type="curve"/>
      <point x="852" y="1545" type="line"/>
      <point x="852" y="1545"/>
      <point x="803" y="1567"/>
      <point x="715" y="1567" type="curve" smooth="yes"/>
      <point x="488" y="1567"/>
      <point x="411" y="1406"/>
      <point x="384" y="1189" type="curve" smooth="yes"/>
      <point x="244" y="50" type="line" smooth="yes"/>
      <point x="228" y="-83"/>
      <point x="197" y="-154"/>
      <point x="73" y="-154" type="curve" smooth="yes"/>
      <point x="19" y="-154"/>
      <point x="-58" y="-139"/>
      <point x="-58" y="-139" type="curve"/>
      <point x="-76" y="-283" type="line"/>
      <point x="-76" y="-283"/>
      <point x="-24" y="-305"/>
    </contour>
  </outline>
</glyph>
<glyph name="notequal" format="1">
  <advance width="1360"/>
  <unicode hex="2260"/>
  <outline>
    <contour>
      <point x="415" y="43" type="line"/>
      <point x="586" y="319" type="line"/>
      <point x="1172" y="319" type="line"/>
      <point x="1189" y="456" type="line"/>
      <point x="671" y="456" type="line"/>
      <point x="839" y="714" type="line"/>
      <point x="1221" y="714" type="line"/>
      <point x="1238" y="852" type="line"/>
      <point x="922" y="852" type="line"/>
      <point x="1076" y="1102" type="line"/>
      <point x="935" y="1123" type="line"/>
      <point x="768" y="852" type="line"/>
      <point x="205" y="852" type="line"/>
      <point x="188" y="714" type="line"/>
      <point x="686" y="714" type="line"/>
      <point x="520" y="456" type="line"/>
      <point x="156" y="456" type="line"/>
      <point x="139" y="319" type="line"/>
      <point x="433" y="319" type="line"/>
      <point x="278" y="64" type="line"/>
    </contour>
  </outline>
</glyph>
<glyph name="lessequal" format="1">
  <advance width="1350"/>
  <unicode hex="2264"/>
  <outline>
    <contour>
      <point x="1073" y="215" type="line"/>
      <point x="1094" y="384" type="line"/>
      <point x="436" y="726" type="line"/>
      <point x="1181" y="1047" type="line"/>
      <point x="1202" y="1220" type="line"/>
      <point x="210" y="776" type="line"/>
      <point x="198" y="680" type="line"/>
    </contour>
    <contour>
      <point x="94" y="0" type="line"/>
      <point x="1068" y="0" type="line"/>
      <point x="1084" y="130" type="line"/>
      <point x="109" y="130" type="line"/>
    </contour>
  </outline>
</glyph>
<glyph name="greaterequal" format="1">
  <advance width="1350"/>
  <unicode hex="2265"/>
  <outline>
    <contour>
      <point x="150" y="214" type="line"/>
      <point x="1141" y="657" type="line"/>
      <point x="1153" y="753" type="line"/>
      <point x="277" y="1220" type="line"/>
      <point x="257" y="1049" type="line"/>
      <point x="916" y="708" type="line"/>
      <point x="171" y="387" type="line"/>
    </contour>
    <contour>
      <point x="114" y="0" type="line"/>
      <point x="1088" y="0" type="line"/>
      <point x="1104" y="130" type="line"/>
      <point x="129" y="130" type="line"/>
    </contour>
  </outline>
</glyph>
<glyph name="fi" format="1">
  <advance width="1224"/>
  <unicode hex="FB01"/>
  <outline>
    <contour>
      <point x="159" y="0" type="line"/>
      <point x="332" y="0" type="line"/>
      <point x="445" y="912" type="line"/>
      <point x="935" y="912" type="line"/>
      <point x="949" y="1026" type="line"/>
      <point x="458" y="1026" type="line"/>
      <point x="471" y="1134" type="line" smooth="yes"/>
      <point x="492" y="1300"/>
      <point x="516" y="1349"/>
      <point x="757" y="1349" type="curve"/>
      <point x="775" y="1485" type="line"/>
      <point x="728" y="1485" type="line" smooth="yes"/>
      <point x="386" y="1485"/>
      <point x="327" y="1369"/>
      <point x="295" y="1114" type="curve" smooth="yes"/>
      <point x="285" y="1026" type="line"/>
      <point x="103" y="1026" type="line"/>
      <point x="90" y="912" type="line"/>
      <point x="271" y="912" type="line"/>
    </contour>
    <component base="i" xOffset="704"/>
  </outline>
</glyph>
<glyph name="fl" format="1">
  <advance width="1265"/>
  <unicode hex="FB02"/>
  <outline>
    <contour>
      <point x="178" y="0" type="line"/>
      <point x="351" y="0" type="line"/>
      <point x="463" y="913" type="line"/>
      <point x="710" y="913" type="line"/>
      <point x="724" y="1026" type="line"/>
      <point x="477" y="1026" type="line"/>
      <point x="490" y="1132" type="line" smooth="yes"/>
      <point x="508" y="1285"/>
      <point x="558" y="1331"/>
      <point x="814" y="1331" type="curve" smooth="yes"/>
      <point x="993" y="1331" type="line"/>
      <point x="830" y="0" type="line"/>
      <point x="1003" y="0" type="line"/>
      <point x="1183" y="1466" type="line"/>
      <point x="825" y="1466" type="line" smooth="yes"/>
      <point x="446" y="1466"/>
      <point x="346" y="1364"/>
      <point x="314" y="1105" type="curve" smooth="yes"/>
      <point x="304" y="1026" type="line"/>
      <point x="105" y="1026" type="line"/>
      <point x="91" y="913" type="line"/>
      <point x="290" y="913" type="line"/>
    </contour>
  </outline>
</glyph>
<glyph name="f_f" format="1">
  <advance width="1349"/>
  <outline>
    <contour>
      <point x="1084" y="913" type="line"/>
      <point x="1331" y="913" type="line"/>
      <point x="1345" y="1026" type="line"/>
      <point x="1097" y="1026" type="line"/>
      <point x="1110" y="1136" type="line" smooth="yes"/>
      <point x="1131" y="1301"/>
      <point x="1155" y="1351"/>
      <point x="1397" y="1351" type="curve"/>
      <point x="1415" y="1485" type="line"/>
      <point x="1368" y="1485" type="line" smooth="yes"/>
      <point x="1028" y="1485"/>
      <point x="968" y="1370"/>
      <point x="937" y="1115" type="curve" smooth="yes"/>
      <point x="926" y="1026" type="line"/>
      <point x="455" y="1026" type="line"/>
      <point x="468" y="1136" type="line" smooth="yes"/>
      <point x="489" y="1301"/>
      <point x="513" y="1351"/>
      <point x="755" y="1351" type="curve"/>
      <point x="773" y="1485" type="line"/>
      <point x="726" y="1485" type="line" smooth="yes"/>
      <point x="386" y="1485"/>
      <point x="326" y="1370"/>
      <point x="295" y="1115" type="curve" smooth="yes"/>
      <point x="284" y="1026" type="line"/>
      <point x="103" y="1026" type="line"/>
      <point x="90" y="913" type="line"/>
      <point x="271" y="913" type="line"/>
      <point x="158" y="0" type="line"/>
      <point x="329" y="0" type="line"/>
      <point x="442" y="913" type="line"/>
      <point x="913" y="913" type="line"/>
      <point x="800" y="0" type="line"/>
      <point x="971" y="0" type="line"/>
    </contour>
  </outline>
</glyph>
<glyph name="f_f_l" format="1">
  <advance width="1896"/>
  <outline>
    <contour>
      <point x="445" y="1456" type="move" name="top"/>
    </contour>
    <contour>
      <point x="160" y="0" type="line"/>
      <point x="344" y="0" type="line"/>
      <point x="457" y="913" type="line"/>
      <point x="701" y="913" type="line"/>
      <point x="715" y="1026" type="line"/>
      <point x="470" y="1026" type="line"/>
      <point x="483" y="1125" type="line" smooth="yes"/>
      <point x="504" y="1296"/>
      <point x="527" y="1342"/>
      <point x="763" y="1342" type="curve"/>
      <point x="784" y="1485" type="line"/>
      <point x="736" y="1485" type="line" smooth="yes"/>
      <point x="386" y="1485"/>
      <point x="328" y="1368"/>
      <point x="296" y="1107" type="curve" smooth="yes"/>
      <point x="286" y="1026" type="line"/>
      <point x="103" y="1026" type="line"/>
      <point x="90" y="913" type="line"/>
      <point x="272" y="913" type="line"/>
    </contour>
    <component base="fl" xOffset="562"/>
  </outline>
</glyph>
